<svg xmlns="http://www.w3.org/2000/svg" viewBox="0 0 2255.45 4194.5"><defs><style>.cls-1{fill:#010101;}.cls-1,.cls-2,.cls-3,.cls-4,.cls-5{stroke:#fff;}.cls-1,.cls-2,.cls-3{stroke-miterlimit:10;}.cls-2{fill:none;}.cls-3{fill:#231f20;}.cls-4{font-size:118.4px;}.cls-4,.cls-5{fill:#1d1d1b;font-family:FugazOne-Regular, Fugaz One;}.cls-5{font-size:134.48px;}.cls-6{letter-spacing:-0.01em;}</style></defs><g id="Layer_2" data-name="Layer 2"><g id="Layer_2-2" data-name="Layer 2"><path class="cls-1" d="M1522,107.33c-34.5,6.9-60.4,44.5-69,100-2.5,16-3,47.5-1.1,65.2,4.7,44.1,18.5,84.7,39.4,115.9,16.7,24.8,38.4,41.7,59.8,46.5,4.1.9,7.4,2.1,7.4,2.8,0,3.9-6.9,23.8-8,23.1-.4-.2-4.7.9-9.6,2.6-13,4.4-46.9,14.6-78.9,23.8-47.9,13.7-68.5,20.3-85.8,27.5-23.4,9.7-38.6,19.7-47.5,31.4-2.4,3.1-2.5,3.6-1.8,13.5,1.1,16.6,4,27.1,11.1,40.4,5.5,10.3,11.1,17.6,21.2,27.4,15.9,15.6,30.4,24.8,72.5,46.5,16.7,8.6,31.2,16.3,32.2,17.2,4.8,4.2,6.9,13.8,4.2,19-1.3,2.6-.8,3.9,8.8,25.7,18.4,41.5,22,47.6,26.5,44.8,1.8-1.1,2.6-5,4-21.8,1.2-13.5,2.5-18.3,7.1-27.6,1.8-3.5,3.8-7.9,4.5-9.8,1-2.9,1.3,1.4,1.8,26.9.9,39.6,3,68.6,7.3,98.2.7,4.7.6,4.8-2.1,4.8h-2.8l.7,12.7c5.9,114.5,5.9,214.6,0,280.3-4.6,51.9-14,87.9-25.1,96.8-7.6,6-9.5,8.2-9,10.2.9,3.6-6.6,8.1-24.1,14.5-12.7,4.6-15.4,6.6-15,10.8.3,2.7,1.6,4,9.2,9.3a227.69,227.69,0,0,1,17.9,14.5l8.9,8.2-8.9,3.2c-5,1.7-10.3,3.9-11.8,4.9-5,3.3-1.1,3.9,20.2,3.4,10.6-.3,19.3-.3,19.3-.1a9,9,0,0,1-2.2,2.5l-2.3,1.9,4-.6c12.8-2.2,23.4-4.4,18.5-4-3,.3-7.3.8-9.5,1.1-3.5.5-3.7.4-2-.7a40.59,40.59,0,0,0,5.7-5.3c3.1-3.5,3.4-4.2,2-4.7-.9-.4,3.2-1.2,9.2-2s10.3-1.5,9.6-1.7-7.9.3-15.9,1.3c-10.2,1.3-15.4,2.4-17.3,3.7a10.11,10.11,0,0,1-3.4,1.8c-1.8,0,7.3-5.6,9.4-5.7,3.6-.3,24.6-4.5,25.2-5s-1.9-.3-11,1.2l-3.5.6,3.9-1.5c3.5-1.3,5-2.6,5.8-4.8.2-.4,5.5-2.1,11.8-3.8s9.7-2.8,7.5-2.5-10.3,2.2-18,4.1c-12.9,3.3-14.4,3.9-18.5,7.7-4.4,4.1-4.4,4.1.5-1.1,6.3-6.7,11.5-9.4,25.7-13.2s16.6-6.3,11.1-11.4c-2.6-2.4-17.5-9.4-38.8-18.1-4.9-2-9.3-4.2-9.7-4.8s1-2.5,3.1-4.4c24.1-20.6,35.4-104.8,33.8-249.8-.6-49.8-1.9-94.1-3.2-113.5l-.6-8.5,3.5,4.1a17.83,17.83,0,0,0,14.6,6.1c2.3-.2,2.6.5,5.2,9.3,10.5,36.1,15.7,73.9,16.5,119,1.1,65.6-6.9,118.3-30.6,202.3-8.8,31.2-9.2,33.3-5.7,37.4,3.1,3.7,8.7,5.8,19.9,7.4a49.83,49.83,0,0,1,14.9,4.5c17.4,8.7,36.2,14.5,49.8,15.1,17.6.9,27.2-2.4,39.5-13.6,4.3-3.9,8.1-7.1,8.5-7.1s1.9-1.5,3.3-3.4l2.6-3.4-15.2.1c-21.6.2-43-4.4-73.7-15.8l-15-5.6-3.7,3a42.42,42.42,0,0,1-16.7,7.7c-3.4.6-3.8.5-3.2-1.2,6.4-20.9,17.8-63.8,22.5-84.9,15.1-68.6,19.1-136.1,11.6-196-3.3-26.1-9-53.5-15.5-74.7l-3.1-9.8,2.1-3.9c2.6-5.2,5.6-16.5,7.1-27.1,1.6-10.9,1.6-60.2,0-85-.6-10.2-3-42.4-5.1-71.5-9-119.3-10.1-165.1-4.9-201.7,1.1-7.6,1.2-7.7,3.8-7.2,1.4.2,13.2,2,26.1,4,54.4,8.1,85.1,14.5,106.2,22,15.7,5.6,36.8,18.2,36.8,22,0,2.4-8.5,19.3-15.5,30.9-15.6,25.8-33.1,47.3-61.4,75.5-19.2,19.1-49.2,45.3-56.4,49.2-1.8,1-7.9,4-13.7,6.6-7.8,3.6-11.5,6-14.4,9.2-3.8,4.2-3.8,4.4-3.4,10.9.4,5.2,1.4,8.4,4.7,14.9,5.1,10.1,6.9,17.6,7.7,31.2.7,12.5,1.8,17.6,4.1,18.4,4.5,1.8,8.5-5.2,26.8-46.7,9.1-20.5,9.3-21,7.9-24.3-2.5-6-1.1-12,4.3-19.1a75.93,75.93,0,0,0,4.8-7c.7-1.2,5.2-5.7,10.1-10,31.5-27.4,61.5-60.7,80.9-89.8,10.9-16.4,16.8-26.9,23.5-42l4.9-11-4.2-4.3c-15.2-15.6-41-27.3-79.1-35.8-16.7-3.7-56.1-10.5-84.4-14.5l-16.3-2.4.7-3c.4-1.6,2.4-8.4,4.4-15s4.1-13.4,4.5-15.1c.5-2.6,1.5-3.4,6-5.3,31.3-13,52.6-50.2,59.7-104.1,1.8-13.9,1.5-49.8-.6-65-9.6-71-41.3-128.6-81.9-149C1547.77,107.13,1534.47,104.83,1522,107.33Zm28.3,18.3c19.5,8.5,38,27.6,52.3,54.1,2.3,4.3,3.8,7.7,3.3,7.4-7.5-3.6-9.5-4.1-15.5-4.1-20.1,0-31.4,20.9-24,44.2,8.9,28.3,40.4,34.6,53,10.6a22.34,22.34,0,0,0,2.2-5.5c.1-3,1.8,3.1,3.9,13.7,6.5,33.1,6.7,70,.5,99.8-6,29-19,53.1-35,65.2-9.6,7.2-13,8.3-26.9,8.6-11.4.2-12.5,0-18.5-2.6-19.3-8.6-37.5-27.7-52-54.7-12.2-22.9-21.9-55.9-26.2-89-1.7-13.7-1.5-45,.5-59.6,6.2-46.4,24-78,50.2-89,5.2-2.2,7-2.4,15.9-2.1C1542.07,122.93,1545.17,123.43,1550.27,125.63Zm47.5,72.4c3.7,1.9,8.4,8.6,10.2,14.6,4.3,14.6-1.2,26.7-12.2,26.7-5.1,0-9.7-3-13.3-8.7-3.8-5.9-5-10.2-5-17.6C1577.47,198.93,1586.37,192.23,1597.77,198Zm-51.3,277.3c0,.5-1.3,5.8-2.9,11.7-12.7,46.6-22.6,138.6-23.2,213.3,0,9.3-.3,12.6-.9,10.6-2-6.7-8.9-11.4-28.4-19.5a165.92,165.92,0,0,1-17.9-9c-4.5-2.7-21.2-11.6-37.2-19.8-41.7-21.5-55.7-30.6-71.1-46.5-16.2-16.6-23.8-32.9-26-55.6l-.7-7.3,4.4-4.6c15.3-15.7,42.6-27,117.4-48.3,29.8-8.5,71.8-21.1,79.5-23.9C1546,474.13,1546.47,474,1546.47,475.33Zm2.5,183.5c1.4,18.7,3.6,48.8,5,67,4,54,5.1,87.4,3.6,107.1-1.6,22.2-1.8,23.3-4.7,24.6-1.3.6-2.6.9-2.9.6-1-.9-4.4-22.2-5.9-36.3-3.5-32.9-4.1-47.2-4-104,0-54.1,1.3-87.2,4.1-111,.7-5.8.8-5.5,1.5,6C1546.17,619.43,1547.67,640.13,1549,658.83Zm-19.8,640.1a2,2,0,0,1-1.9.1c-.8-.3-.5-.6.6-.6S1529.57,1298.63,1529.17,1298.93Zm-29.4,15.1a5.28,5.28,0,0,1-2.5,0c-.7-.3-.2-.5,1.2-.5S1500.37,1313.73,1499.77,1314Z"/><path class="cls-1" d="M1508.67,205.43c-5.7,2.8-11.7,9.9-13.8,16.1-3.6,11.1-.9,27.4,6.4,37.8,12.8,18.4,37.4,17.9,47.2-1,5.2-10.1,4.1-26.4-2.5-38.3-3.1-5.5-9.7-12.1-14.5-14.4C1526,202.93,1514,202.83,1508.67,205.43Zm17.8,12.4c6.6,3.4,12,14.5,12,24.8,0,10.9-4.8,16.9-13.5,16.9-6.2,0-11-3.7-15-11.7-5.8-11.5-4.2-25.9,3.3-29.9C1516.77,215.93,1522.77,215.93,1526.47,217.83Z"/><path class="cls-1" d="M1572,347c-6.9,1.5-18.2,6-24.8,9.7-8.3,4.7-20.1,13.2-23.2,16.6-1.9,2-1.8,2.1.7,4.7l2.6,2.6,8.5-6.7c19.8-15.5,42.4-23.1,54-18.2,3.8,1.5,8.4,6.6,9.3,10.2.7,2.7.9,2.8,5.3,1.3,2.6-.9,3-1.5,2.5-3.3-2-6.7-9.7-14.5-16.3-16.4C1586.87,346.33,1576.07,346.13,1572,347Z"/><path class="cls-1" d="M1562.27,1290a2,2,0,0,0,1.9-.1c.4-.3-.2-.6-1.3-.5S1561.47,1289.73,1562.27,1290Z"/><path class="cls-1" d="M1556.77,1291a7.56,7.56,0,0,0,3,0c.6-.3-.1-.5-1.8-.5S1555.77,1290.73,1556.77,1291Z"/><path class="cls-1" d="M1554.27,1299a2,2,0,0,0,1.9-.1c.4-.3-.2-.6-1.3-.5S1553.47,1298.73,1554.27,1299Z"/><path class="cls-1" d="M1548.27,1300a5.28,5.28,0,0,0,2.5,0c.6-.3.1-.5-1.3-.5S1547.57,1299.73,1548.27,1300Z"/><path class="cls-1" d="M1540,1301.33c-2.7.7-2.7.8-.5.8a21.71,21.71,0,0,0,5-.8c2-.6,2.1-.8.5-.8A28.26,28.26,0,0,0,1540,1301.33Z"/><path class="cls-1" d="M1541.77,1306a10.28,10.28,0,0,0,3.5,0c.9-.3.1-.5-1.8-.5S1540.77,1305.73,1541.77,1306Z"/><path class="cls-1" d="M1543.27,1317a2,2,0,0,0,1.9-.1c.4-.3-.2-.6-1.3-.5S1542.47,1316.73,1543.27,1317Z"/><path class="cls-1" d="M1536.27,1318a5.28,5.28,0,0,0,2.5,0c.6-.3.1-.5-1.3-.5S1535.57,1317.73,1536.27,1318Z"/><path class="cls-1" d="M1530.27,1319a5.28,5.28,0,0,0,2.5,0c.6-.3.1-.5-1.3-.5S1529.57,1318.73,1530.27,1319Z"/><path class="cls-1" d="M413.6,317.5c-11.5-39.61-54.7-70.11-130.3-92-4-1.11-7.5-2.5-7.8-2.91s-4.7-2.9-9.7-5.4c-12.2-5.9-20.5-13.6-32.9-30.3-5.4-7.2-11-14.1-12.5-15.3-3.4-2.7-6.8-2.7-9.5,0l-2.1,2.1-6.2-6c-15.9-15.5-34-21.8-52.1-18.19-25,5-47.9,29.09-62.3,65.5-18,45.39-22.1,105.79-10.6,157.5,3,13.59,8.5,30.89,12.5,39.89,1.6,3.5,2.9,6.5,2.9,6.61s-2.1,1.5-4.6,3.09c-8.6,5.5-10.7,12.91-5.6,20,3.4,4.6,11.7,10.41,34.7,24.3,9.4,5.61,18.1,11,19.5,12.11l2.5,1.89-5.2,15.3C123.9,526,117.9,553.89,111.7,600l-1.4,10-1.6-3.81c-5.6-13-12.4-34.9-15.9-51.1-3.2-14.8-3.1-36.8,0-44.8,5.1-12.79,15.2-17,32.2-13.29,3.6.69,6.5,1.29,6.6,1.19a83.46,83.46,0,0,0,3-11.4c-1.4-1.4-16.4-3.4-22.8-3.1C80.1,485.5,70.1,517.5,84.5,572c4.7,18,13.3,41.19,20.7,55.89l3,5.9-1.1,13.1c-3.1,38-3.5,50-3.6,107.1q0,60,1.3,77.5c1.2,16.4,4.4,45.8,5.8,54.2.6,3.6.5,3.8-2,3.8-3.2,0-3.1-3.5-1.1,40.2,7.7,172.5,2.1,286.3-16.4,335.9-2.9,7.6-7.2,14.1-11.6,17.5-6.2,4.7-7.5,6.3-7.5,8.7,0,4.4-6.2,8.2-24.5,15.2-11.5,4.4-14.2,5.9-15,8.6-1.2,3.6.6,5.9,9.3,11.8a181.74,181.74,0,0,1,17.5,14.2l5.93,5.47.18.16,35.93-6.5v-.52h0c-1.4-1.5,10.9-6.7,22.9-9.7,9.5-2.4,12.8-4.2,12.8-7,0-4.2-6.3-7.7-34.8-19.6-8.6-3.6-16.1-6.9-16.6-7.4s1.3-3.1,4.2-5.9c16.9-17.3,26.5-60.4,31.4-142.6,2.4-39.7,1.2-185-1.8-223.5l-.6-7.5,3.2,3.8a26.18,26.18,0,0,0,6.2,5.3,11,11,0,0,0,7,1c4.7-.8,4.3-1.6,10.3,21.9,15.5,61.3,18.1,131.5,7.4,202.5-4.6,30.6-13.5,70-24.3,107-5.8,20.2-8.6,31.2-8.6,34.3,0,6.4,7.4,10.6,22,12.7a64.06,64.06,0,0,1,17.5,5.7c5.5,2.6,14.8,6.3,20.7,8.3l10.7,3.7-.81.11.22,1.23h0v.09l53.49-9.68s0,0,0,0l0,0h0c.62-.53,1.26-1.09,1.91-1.69,3.1-2.9,7.4-6.5,9.4-8a31.65,31.65,0,0,0,5.2-5.2l1.5-2.3-14.7.1c-23.7.3-44.6-4.6-83.9-19.3l-6.3-2.4-2.7,2.6c-3.3,3.2-12.2,7.4-17.7,8.4-3.6.6-3.8.6-3.1-1.6,2.9-9,11.5-40.1,16-57.5,28.4-110.3,29.4-209.3,3.2-298.9l-3.5-11.8,2.8-6.2c6.3-13.6,8.5-35.3,7.6-75.1-.6-26.9-1.8-47.4-6.7-111.8-1.2-16.3-2-29.9-1.8-30.19s2.7.69,5.4,2c11.6,5.89,22.5,1.39,27.9-11.71,10.4-24.79,4.1-97.9-16.7-194.9l-2.3-10.7,8.1-.6c45.5-3.8,124.8-36.09,184.9-75.3,26.5-17.29,47.7-36.5,53.7-48.79,3.3-6.71,3.4-7.41,3.4-18.5C415.5,327.29,414.9,322.19,413.6,317.5ZM133.5,389c-2.8-4.81-4.8-6.5-7.5-6.5-3.4,0-3.5.09-10.6,13.19-3.1,6-6.1,10.81-6.4,10.81-2.2,0-11.3-29.61-14.4-46.5-4.4-23.91-5.4-60.11-2.2-83.5,5.7-42.11,19.7-76.31,38.8-94.61,15.1-14.39,29.5-17.8,44.6-10.3,7.4,3.6,17.6,12.8,23.7,21.41s14.9,26.39,18.9,38.5c3.5,10.79,8.7,32,7.9,32a23.82,23.82,0,0,1-4.1-3.11c-5-4.39-9.7-6.1-16.8-6.2-14-.19-25.9,10.6-28.2,25.6-3.2,20.4,11.3,38.9,29.5,37.5,9.3-.7,16-4.79,22.6-13.79,1.7-2.41,1.8-2.11,1.2,13.5-1,28.39-4.4,49.79-11.1,70.69-2.5,7.7-4.1,11.1-5.6,11.9-4.2,2.2-15.4.41-33.3-5.5-9.3-3.09-19.9-6.09-23.3-6.7-7.2-1.3-15-.5-19.6,1.8C134.8,390.69,134.5,390.59,133.5,389Zm85-93.21c-2.7,5.71-6.9,8.21-13.8,8.21-5.6,0-6-.21-9.7-4.11-6.4-6.89-7.5-15.6-3-24.39,3.9-7.61,11.2-10.61,18.3-7.61C219.8,271.79,223.7,285,218.5,295.79Zm-90.8,342.4a16.94,16.94,0,0,1,0,4.5c-.2,1.31-.4.31-.4-2.19S127.5,637,127.7,638.19Zm13,222.3c-.9,27.8-2.6,36-7.3,36-1.5,0-4.3-14.4-6.4-32.5-2.8-24.2-4.1-49.7-4.7-89.5s.5-86.6,2.4-104l.6-6.31,1.9,2.31a13.19,13.19,0,0,1,2.3,4.39c.4,2,1.4,14.5,7,91.6C140.1,812.19,141.3,840.89,140.7,860.49ZM174.2,598c3.1,23.59,3.3,67.59.4,77.29-2.4,7.9-4.9,11.21-8.5,11.21-3,0-10.1-4.31-14.3-8.71-2.6-2.79-2.7-2.9-4.4-29.79-2.1-32.91-2.4-93.71-.6-110.31,2.3-20.6,7.5-45.3,9.2-43.5.4.4,3,12.9,5.8,27.81C167.6,552.89,171,573.69,174.2,598Zm-3.1-145a21.3,21.3,0,0,1-10.7.79c-5.6-.79-5.9-1-6.8-4.29-.5-1.91-4.4-14.21-8.7-27.31-7.5-23.3-7.6-23.8-5.6-24.9,7.7-4.1,15.2-3.2,38.6,4.3,12.6,4.1,20.9,6.2,25.9,6.6,3.9.31,7.2.81,7.2,1s-1.2,2.7-2.6,5.6C198.5,434.19,184.6,448.5,171.1,453ZM400.6,350c-1.6,2.69-6.5,8.59-11,13-35.4,35.09-120.4,79.79-184.8,97-11.7,3.09-12,3.09-7.2-.41,8.9-6.3,21.4-23,29.2-38.59,19.3-38.91,27.1-94.21,20.6-146.71a260.17,260.17,0,0,0-5-28.29c-.4-1.5-.3-1.61.4-.61s1.7-.2,3.7-4.8c2.9-6.5,5.5-9.09,9-9.09,1.1,0,8.1,1.5,15.5,3.39,54.4,13.8,97.9,36.3,117.5,60.9,10.6,13.21,14.8,24.6,14.9,39.71C403.5,344.19,403.3,345.39,400.6,350Z"/><path class="cls-1" d="M162.9,280.09c-2.9-17.9-18.3-29.2-34.5-25.2-22.1,5.5-29.6,37.4-12.7,54.3a25.81,25.81,0,0,0,18,8.1C151.7,318.5,166.1,300.29,162.9,280.09Zm-17.8,19.6c-3.2,3.5-4.5,4.1-8.7,4.5-6.8.6-11.1-1.9-14.6-8.69-9-17.11,7.3-36.5,21.6-25.61C152.4,276.79,153.3,291,145.1,299.69Z"/><path class="cls-1" d="M1871.62,318.31c0,11.1.1,11.8,3.4,18.5,6,12.3,27.2,31.5,53.7,48.8,60.1,39.2,139.4,71.5,184.9,75.3l8.1.6-2.3,10.7c-20.8,97-27.1,170.1-16.7,194.9,5.4,13.1,16.3,17.6,27.9,11.7,2.7-1.3,5.1-2.2,5.4-2s-.6,13.9-1.8,30.2c-4.9,64.4-6.1,84.9-6.7,111.8-.9,39.8,1.3,61.5,7.6,75.1l2.8,6.2-3.5,11.8c-26.2,89.6-25.2,188.6,3.2,298.9,4.5,17.4,13.1,48.5,16,57.5.7,2.2.5,2.2-3.1,1.6-5.5-1-14.4-5.2-17.7-8.4l-2.7-2.6-6.3,2.4c-39.3,14.7-60.2,19.6-83.9,19.3l-14.7-.1,1.5,2.3a31.65,31.65,0,0,0,5.2,5.2c2,1.5,6.3,5.1,9.4,8,.65.6,1.29,1.16,1.91,1.69h0l0,0s0,0,0,0l53.49,9.68v-.09h0l.22-1.23-.81-.11,10.7-3.7c5.9-2,15.2-5.7,20.7-8.3a64.06,64.06,0,0,1,17.5-5.7c14.6-2.1,22-6.3,22-12.7,0-3.1-2.8-14.1-8.6-34.3-10.8-37-19.7-76.4-24.3-107-10.7-71-8.1-141.2,7.4-202.5,6-23.5,5.6-22.7,10.3-21.9a11,11,0,0,0,7-1,26.18,26.18,0,0,0,6.2-5.3l3.2-3.8-.6,7.5c-3,38.5-4.2,183.8-1.8,223.5,4.9,82.2,14.5,125.3,31.4,142.6,2.9,2.8,4.7,5.4,4.2,5.9s-8,3.8-16.6,7.4c-28.5,11.9-34.8,15.4-34.8,19.6,0,2.8,3.3,4.6,12.8,7,12,3,24.3,8.2,22.9,9.7h0v.52l35.93,6.5.18-.16,5.93-5.47a181.74,181.74,0,0,1,17.5-14.2c8.7-5.9,10.5-8.2,9.3-11.8-.8-2.7-3.5-4.2-15-8.6-18.3-7-24.5-10.8-24.5-15.2,0-2.4-1.3-4-7.5-8.7-4.4-3.4-8.7-9.9-11.6-17.5-18.5-49.6-24.1-163.4-16.4-335.9,2-43.7,2.1-40.2-1.1-40.2-2.5,0-2.6-.2-2-3.8,1.4-8.4,4.6-37.8,5.8-54.2q1.35-17.55,1.3-77.5c-.1-57.1-.5-69.1-3.6-107.1l-1.1-13.1,3-5.9c7.4-14.7,16-37.9,20.7-55.9,14.4-54.5,4.4-86.5-27.3-88.3-6.4-.3-21.4,1.7-22.8,3.1a84.22,84.22,0,0,0,3,11.4c.1.1,3-.5,6.6-1.2,17-3.7,27.1.5,32.2,13.3,3.1,8,3.2,30,0,44.8-3.5,16.2-10.3,38.1-15.9,51.1l-1.6,3.8-1.4-10c-6.2-46.1-12.2-74-22.6-104.3l-5.2-15.3,2.5-1.9c1.4-1.1,10.1-6.5,19.5-12.1,23-13.9,31.3-19.7,34.7-24.3,5.1-7.1,3-14.5-5.6-20-2.5-1.6-4.6-3-4.6-3.1s1.3-3.1,2.9-6.6c4-9,9.5-26.3,12.5-39.9,11.5-51.7,7.4-112.1-10.6-157.5-14.4-36.4-37.3-60.5-62.3-65.5-18.1-3.6-36.2,2.7-52.1,18.2l-6.2,6-2.1-2.1c-2.7-2.7-6.1-2.7-9.5,0-1.5,1.2-7.1,8.1-12.5,15.3-12.4,16.7-20.7,24.4-32.9,30.3-5,2.5-9.4,4.9-9.7,5.4s-3.8,1.8-7.8,2.9c-75.6,21.9-118.8,52.4-130.3,92C1872.22,305,1871.62,310.11,1871.62,318.31Zm277.9,53.7c-4.6-2.3-12.4-3.1-19.6-1.8-3.4.6-14,3.6-23.3,6.7-17.9,5.9-29.1,7.7-33.3,5.5-1.5-.8-3.1-4.2-5.6-11.9-6.7-20.9-10.1-42.3-11.1-70.7-.6-15.6-.5-15.9,1.2-13.5,6.6,9,13.3,13.1,22.6,13.8,18.2,1.4,32.7-17.1,29.5-37.5-2.3-15-14.2-25.8-28.2-25.6-7.1.1-11.8,1.8-16.8,6.2a23.49,23.49,0,0,1-4.1,3.1c-.8,0,4.4-21.2,7.9-32,4-12.1,12.7-29.8,18.9-38.5s16.3-17.8,23.7-21.4c15.1-7.5,29.5-4.1,44.6,10.3,19.1,18.3,33.1,52.5,38.8,94.6,3.2,23.4,2.2,59.6-2.2,83.5-3.1,16.9-12.2,46.5-14.4,46.5-.3,0-3.3-4.8-6.4-10.8-7.1-13.1-7.2-13.2-10.6-13.2-2.7,0-4.7,1.7-7.5,6.5C2152.62,373.41,2152.32,373.51,2149.52,372Zm-72.7-121.3c7.1-3,14.4,0,18.3,7.6,4.5,8.8,3.4,17.5-3,24.4-3.7,3.9-4.1,4.1-9.7,4.1-6.9,0-11.1-2.5-13.8-8.2C2063.42,267.81,2067.32,254.61,2076.82,250.71Zm83,372.6c0,2.5-.2,3.5-.4,2.2a17,17,0,0,1,0-4.5C2159.62,619.81,2159.82,620.81,2159.82,623.31Zm-9.2,122c5.6-77.1,6.6-89.6,7-91.6a13.33,13.33,0,0,1,2.3-4.4l1.9-2.3.6,6.3c1.9,17.4,2.9,64.1,2.4,104s-1.9,65.3-4.7,89.5c-2.1,18.1-4.9,32.5-6.4,32.5-4.7,0-6.4-8.2-7.3-36C2145.82,823.71,2147,795,2150.62,745.31Zm-25.3-240.5c2.8-14.9,5.4-27.4,5.8-27.8,1.7-1.8,6.9,22.9,9.2,43.5,1.8,16.6,1.5,77.4-.6,110.3-1.7,26.9-1.8,27-4.4,29.8-4.2,4.4-11.3,8.7-14.3,8.7-3.6,0-6.1-3.3-8.5-11.2-2.9-9.7-2.7-53.7.4-77.3C2116.12,556.51,2119.52,535.71,2125.32,504.81Zm-46.6-107.2c-1.4-2.9-2.6-5.4-2.6-5.6s3.3-.7,7.2-1c5-.4,13.3-2.5,25.9-6.6,23.4-7.5,30.9-8.4,38.6-4.3,2,1.1,1.9,1.6-5.6,24.9-4.3,13.1-8.2,25.4-8.7,27.3-.9,3.3-1.2,3.5-6.8,4.3a21.18,21.18,0,0,1-10.7-.8C2102.52,431.31,2088.62,417,2078.72,397.61Zm-195-79.3c.1-15.1,4.3-26.5,14.9-39.7,19.6-24.6,63.1-47.1,117.5-60.9,7.4-1.9,14.4-3.4,15.5-3.4,3.5,0,6.1,2.6,9,9.1,2,4.6,3,5.8,3.7,4.8s.8-.9.4.6a260.86,260.86,0,0,0-5,28.3c-6.5,52.5,1.3,107.8,20.6,146.7,7.8,15.6,20.3,32.3,29.2,38.6,4.8,3.5,4.5,3.5-7.2.4-64.4-17.2-149.4-61.9-184.8-97-4.5-4.4-9.4-10.3-11-13C1883.82,328.21,1883.62,327,1883.72,318.31Z"/><path class="cls-1" d="M2153.42,300.11a25.81,25.81,0,0,0,18-8.1c16.9-16.9,9.4-48.8-12.7-54.3-16.2-4-31.6,7.3-34.5,25.2C2121,283.11,2135.42,301.31,2153.42,300.11Zm-9.7-47.4c14.3-10.9,30.6,8.5,21.6,25.6-3.5,6.8-7.8,9.3-14.6,8.7-4.2-.4-5.5-1-8.7-4.5C2133.82,273.81,2134.72,259.61,2143.72,252.71Z"/><path class="cls-2" d="M1797.46,1433.34v-.93"/><polyline class="cls-2" points="1708.39 1417.74 1708.48 1417.25 1708.48 1417.23 1708.49 1417.16 1708.49 1417.15 1708.71 1415.92"/><path class="cls-3" d="M289.8,371.68c-3.94.82-7.79,2-11.92,2.3-2.39.08-3.41-2.17-2.14-3.43,2.52-3.86,5.27-7.8,9.68-10.77,4-2.74,7.21-6.09,11.82-8.37,5.29-2.69,10.79-5.15,16.29-7.61,7.1-3.39,13.5-7.45,20.56-10.88a88.42,88.42,0,0,0,9.27-5.39c4.45-3,9.75-5.25,14.43-8,4.58-2.35,8.55-5.27,13.46-7.28,4.18-1.7,7-4.63,11.13-6.33a92.54,92.54,0,0,0,13.39-7.27c5.47-3,9.35-7.22,14.8-10.26,5.44-4.23,12.43-7.13,18.75-10.63A372.84,372.84,0,0,0,462.08,258c2.15-1.52,4.4-3.24,4.66-5.5,1-6.29,1.05-12.62,1.56-18.93a76.88,76.88,0,0,0-1.61-29.27c-7.15-36.87-24.52-72.53-27.53-109.83-1.41-7.42.61-14.8,1.87-22.15,1.81-8.8,7-17,11.16-25.32a42.66,42.66,0,0,1,12.45-16.76C477.94,19.37,496.71,11.68,517,10c8.93-.83,17.95-1.52,27-1.5,34.3.2,68,5.43,102.2,6.65,4.08,0,8.12-1.25,12.18-.44,29.47,5,59.9,5.26,90,6.84,11.28.29,22.46,1.67,33.74,1.69,22.08,1.13,44.23.35,66.3-.61,4.7-.1,9.64-1.15,14.13.33,9.65,3,20.07.31,30-.06C913,22.25,933.4,21.1,953.8,19.7c29.31-1.57,58.45-4.35,87.64-6.65,22.35.08,44.21-3.63,66.35-5.15,5.59-.22,11.21.19,16.8-.21,34.31-3.08,68.59-7.81,103.33-7.12a265.76,265.76,0,0,1,60.25,5.61,142.72,142.72,0,0,1,21.73,6.15c8.57,3.33,17.28,6.62,24.69,11.22,7.3,4,11.4,10,16.68,15.23,3.63,3.41,5.07,7.6,7.38,11.47a46.57,46.57,0,0,1,5.16,12.23c4.08,21.31-4.73,42.34-5.15,63.59-3.07,17.86-.94,35.94,2.63,53.69,4.24,20.32,10.7,40.35,15.93,60.54,1.75,7.4,4.26,14.78,4,22.31,0,10.73-4,21.17-7.84,31.46-2.38,4.33-7.09,7.74-10.69,11.56-5.21,4.63-8.69,10.14-14.51,14.42-8.3,6.09-16.37,12.5-26.77,16.83-24.52,12.78-55.06,17.24-84.58,20.23-23.46,1.7-47.07,1.37-70.61,1.2-54.33-1.15-108.54-4.33-162.84-6.15-10.88-.19-21.71-1-32.6-.78-13.48-.77-27-.48-40.51-.55-25.8-1-51.62.24-77.44.06-9.72.69-19.51.25-29.24.88-49.43,1.79-98.7,5.24-148.06,7.72-33,2.42-66.51,4.38-99.63,1.42-12.33-1.57-24.9-3-36.45-6.59-16.22-5.51-27.21-16.06-37.49-26.13-6.75.25-13.11,2.24-19.69,3.21-39.51,8.36-79,16.81-118.62,24.92-24.61,5-49.28,9.9-73.73,15.35M348.67,352c31.67-5.68,62.61-13.32,94.55-18.23,3.75-.63,7.3-1.68,10.88-2.64,11.48-2.87,23.34-4.83,35.11-7,12.58-3.11,25.46-5.56,38.36-7.91,4.52-.78,8.79-3.17,13.63-2.27a4.23,4.23,0,0,1,3.07,4.27c-10.31,2.56-21.61,3-31.47,6.6,6.15,7.5,15.86,13.35,26.35,17.67,15.13,6,32.45,8.9,49.7,9.23,15.4.77,30.89.94,46.3.31,57.55-1.45,114.4-8.6,171.69-12.29,10.12-.31,20.17-1.37,30.25-2,16.17,0,32.34-.15,48.5.12,22.06-.35,44.12-.28,66.17-.11,25.74.78,51.42,2.11,77.11,3.4,12.89,1.06,25.87,1.28,38.73,2.51,38.84,2.31,77.65,5,116.55,6.66,9,.79,18,.11,27,.62,8.24.61,16.46-.39,24.7-.26,11.94-1.09,23.81-2.59,35.69-3.93,16.51-2.08,33.15-5.69,46.59-13.07,19.74-11,33.92-26.92,39.71-44.27,3-9.36,2.49-19,2.31-28.52-1.46-22-9.21-43.46-13.51-65.22-5-22.52-4.34-45.44-2.12-68.13,1.54-12.4,3.82-24.76,4.72-37.21.73-12.09-.79-24.87-9.45-35.58-8.32-11.07-21.25-20.19-36-27a170.24,170.24,0,0,0-57.76-14.22c-9.06-.49-18-2-27.14-1.77-10.12.2-20.31-.45-30.38.6-11.89,1-23.87,1.59-35.65,3.16-81.53,8.62-162.67,20-245.09,23.51-6.8,0-13.58.42-20.31,1-11.13,1.08-22.38.55-33.6.66-15.39.22-30.67-1.4-46-1.62-15.79.09-31.45-1.49-47.17-2.3-34.91-2.4-69.53-6.52-104.31-9.66-13.18-1.13-26.3-2.63-39.57-3.09-31.41-2-62.92-7.84-94.55-4.33-9.51,1-19.25,2.49-27.3,6.42C474.73,35.27,463.17,51.65,459.35,68c-1.67,9.58-.45,19.24.14,28.83,2,21.1,7.54,41.89,12,62.77a353.58,353.58,0,0,1,8.78,52.83c0,12.73-.15,25.46,0,38.19,6.47-.57,7.63-6.09,13-8,2.06,3.25,2.54,6.91,2.69,10.43-.34,4.26-6.28,6.38-10.18,9-47.83,28.71-97.66,55.64-147,83-6.19,3.72-13.23,6.76-18.76,11,9.68-.55,19.08-2.41,28.54-4Z"/><text class="cls-4" transform="translate(484.96 141.72) scale(0.47 1)">Guys, can we grab a snack bar <tspan x="118.52" y="142.08">before we go for this run?</tspan></text><path class="cls-1" d="M1486,1474.78c-40.6,20.4-72.3,78-81.9,149-2.1,15.2-2.4,51.1-.6,65,7.1,53.9,28.4,91.1,59.7,104.1,4.5,1.9,5.5,2.7,6,5.3.4,1.7,2.4,8.5,4.5,15.1s4,13.4,4.4,15l.7,3-16.3,2.4c-28.3,4-67.7,10.8-84.4,14.5-38.1,8.5-63.9,20.2-79.1,35.8l-4.2,4.3,4.9,11c6.7,15.1,12.6,25.6,23.5,42,19.4,29.1,49.4,62.4,80.9,89.8,4.9,4.3,9.4,8.8,10.1,10a75.93,75.93,0,0,0,4.8,7c5.4,7.1,6.8,13.1,4.3,19.1-1.4,3.3-1.2,3.8,7.9,24.3,18.3,41.5,22.3,48.5,26.8,46.7,2.3-.8,3.4-5.9,4.1-18.4.8-13.6,2.6-21.1,7.7-31.2,3.3-6.5,4.3-9.7,4.7-14.9.4-6.5.4-6.7-3.4-10.9-2.9-3.2-6.6-5.6-14.4-9.2-5.8-2.6-11.9-5.6-13.7-6.6-7.2-3.9-37.2-30.1-56.4-49.2-28.3-28.2-45.8-49.7-61.4-75.5-7-11.6-15.5-28.5-15.5-30.9,0-3.8,21.1-16.4,36.8-22,21.1-7.5,51.8-13.9,106.2-22,12.9-2,24.7-3.8,26.1-4,2.6-.5,2.7-.4,3.8,7.2,5.2,36.6,4.1,82.4-4.9,201.7-2.1,29.1-4.5,61.3-5.1,71.5-1.6,24.8-1.6,74.1,0,85,1.5,10.6,4.5,21.9,7.1,27.1l2.1,3.9-3.1,9.8c-6.5,21.2-12.2,48.6-15.5,74.7-7.5,59.9-3.5,127.4,11.6,196,4.7,21.1,16.1,64,22.5,84.9.6,1.7.2,1.8-3.2,1.2a42.42,42.42,0,0,1-16.7-7.7l-3.7-3-15,5.6c-30.7,11.4-52.1,16-73.7,15.8l-15.2-.1,2.6,3.4c1.4,1.9,2.9,3.4,3.3,3.4s4.2,3.2,8.5,7.1c12.3,11.2,21.9,14.5,39.5,13.6,13.6-.6,32.4-6.4,49.8-15.1a49.83,49.83,0,0,1,14.9-4.5c11.2-1.6,16.8-3.7,19.9-7.4,3.5-4.1,3.1-6.2-5.7-37.4-23.7-84-31.7-136.7-30.6-202.3.8-45.1,6-82.9,16.5-119,2.6-8.8,2.9-9.5,5.2-9.3a17.83,17.83,0,0,0,14.6-6.1l3.5-4.1-.6,8.5c-1.3,19.4-2.6,63.7-3.2,113.5-1.6,145,9.7,229.2,33.8,249.8,2.1,1.9,3.5,3.8,3.1,4.4s-4.8,2.8-9.7,4.8c-21.3,8.7-36.2,15.7-38.8,18.1-5.5,5.1-3.1,7.5,11.1,11.4s19.4,6.5,25.7,13.2c4.9,5.2,4.9,5.2.5,1.1-4.1-3.8-5.6-4.4-18.5-7.7-7.7-1.9-15.8-3.8-18-4.1s1.2.8,7.5,2.5,11.6,3.4,11.8,3.8c.8,2.2,2.3,3.5,5.8,4.8l3.9,1.5-3.5-.6c-9.1-1.5-11.5-1.7-11-1.2s21.6,4.7,25.2,5c2.1.1,11.2,5.7,9.4,5.7a10.11,10.11,0,0,1-3.4-1.8c-1.9-1.3-7.1-2.4-17.3-3.7-8-1-15.2-1.6-15.9-1.3s3.6,1,9.6,1.7,10.1,1.6,9.2,2c-1.4.5-1.1,1.2,2,4.7a40.59,40.59,0,0,0,5.7,5.3c1.7,1.1,1.5,1.2-2,.7-2.2-.3-6.5-.8-9.5-1.1-4.9-.4,5.7,1.8,18.5,4l4,.6-2.3-1.9a9,9,0,0,1-2.2-2.5c0-.2,8.7-.2,19.3.1,21.3.5,25.2-.1,20.2-3.4-1.5-1-6.8-3.2-11.8-4.9l-8.9-3.2,8.9-8.2a227.69,227.69,0,0,1,17.9-14.5c7.6-5.3,8.9-6.6,9.2-9.3.4-4.2-2.3-6.2-15-10.8-17.5-6.4-25-10.9-24.1-14.5.5-2-1.4-4.2-9-10.2-11.1-8.9-20.5-44.9-25.1-96.8-5.9-65.7-5.9-165.8,0-280.3l.7-12.7h-2.8c-2.7,0-2.8-.1-2.1-4.8,4.3-29.6,6.4-58.6,7.3-98.2.5-25.5.8-29.8,1.8-26.9.7,1.9,2.7,6.3,4.5,9.8,4.6,9.3,5.9,14.1,7.1,27.6,1.4,16.8,2.2,20.7,4,21.8,4.5,2.8,8.1-3.3,26.5-44.8,9.6-21.8,10.1-23.1,8.8-25.7-2.7-5.2-.6-14.8,4.2-19,1-.9,15.5-8.6,32.2-17.2,42.1-21.7,56.6-30.9,72.5-46.5,10.1-9.8,15.7-17.1,21.2-27.4,7.1-13.3,10-23.8,11.1-40.4.7-9.9.6-10.4-1.8-13.5-8.9-11.7-24.1-21.7-47.5-31.4-17.3-7.2-37.9-13.8-85.8-27.5-32-9.2-65.9-19.4-78.9-23.8-4.9-1.7-9.2-2.8-9.6-2.6-1.1.7-8-19.2-8-23.1,0-.7,3.3-1.9,7.4-2.8,21.4-4.8,43.1-21.7,59.8-46.5,20.9-31.2,34.7-71.8,39.4-115.9,1.9-17.7,1.4-49.2-1.1-65.2-8.6-55.5-34.5-93.1-69-100C1513.72,1465.28,1500.42,1467.58,1486,1474.78Zm28.2,8.3c8.9-.3,10.7-.1,15.9,2.1,26.2,11,44,42.6,50.2,89,2,14.6,2.2,45.9.5,59.6-4.3,33.1-14,66.1-26.2,89-14.5,27-32.7,46.1-52,54.7-6,2.6-7.1,2.8-18.5,2.6-13.9-.3-17.3-1.4-26.9-8.6-16-12.1-29-36.2-35-65.2-6.2-29.8-6-66.7.5-99.8,2.1-10.6,3.8-16.7,3.9-13.7a22.34,22.34,0,0,0,2.2,5.5c12.6,24,44.1,17.7,53-10.6,7.4-23.3-3.9-44.2-24-44.2-6,0-8,.5-15.5,4.1-.5.3,1-3.1,3.3-7.4,14.3-26.5,32.8-45.6,52.3-54.1C1503,1483.88,1506.12,1483.38,1514.22,1483.08Zm-43.5,90.4c0,7.4-1.2,11.7-5,17.6-3.6,5.7-8.2,8.7-13.3,8.7-11,0-16.5-12.1-12.2-26.7,1.8-6,6.5-12.7,10.2-14.6C1461.82,1552.68,1470.72,1559.38,1470.72,1573.48Zm38,263.4c7.7,2.8,49.7,15.4,79.5,23.9,74.8,21.3,102.1,32.6,117.4,48.3l4.4,4.6-.7,7.3c-2.2,22.7-9.8,39-26,55.6-15.4,15.9-29.4,25-71.1,46.5-16,8.2-32.7,17.1-37.2,19.8a165.92,165.92,0,0,1-17.9,9c-19.5,8.1-26.4,12.8-28.4,19.5-.6,2-.9-1.3-.9-10.6-.6-74.7-10.5-166.7-23.2-213.3-1.6-5.9-2.9-11.2-2.9-11.7C1501.72,1834.48,1502.22,1834.58,1508.72,1836.88Zm-6.2,136.4c.7-11.5.8-11.8,1.5-6,2.8,23.8,4.1,56.9,4.1,111,.1,56.8-.5,71.1-4,104-1.5,14.1-4.9,35.4-5.9,36.3-.3.3-1.6,0-2.9-.6-2.9-1.3-3.1-2.4-4.7-24.6-1.5-19.7-.4-53.1,3.6-107.1,1.4-18.2,3.6-48.3,5-67S1502,1979.88,1502.52,1973.28Zm17.8,685.6c1.1,0,1.4.3.6.6a2,2,0,0,1-1.9-.1C1518.62,2659.08,1519.22,2658.78,1520.32,2658.88Zm29.4,15.1c1.4,0,1.9.2,1.2.5a5.28,5.28,0,0,1-2.5,0C1547.82,2674.18,1548.32,2674,1549.72,2674Z"/><path class="cls-1" d="M1516.72,1566.08c-4.8,2.3-11.4,8.9-14.5,14.4-6.6,11.9-7.7,28.2-2.5,38.3,9.8,18.9,34.4,19.4,47.2,1,7.3-10.4,10-26.7,6.4-37.8-2.1-6.2-8.1-13.3-13.8-16.1C1534.22,1563.28,1522.22,1563.38,1516.72,1566.08Zm18.2,12.3c7.5,4,9.1,18.4,3.3,29.9-4,8-8.8,11.7-15,11.7-8.7,0-13.5-6-13.5-16.9,0-10.3,5.4-21.4,12-24.8C1525.42,1576.38,1531.42,1576.38,1534.92,1578.38Z"/><path class="cls-1" d="M1476.22,1707.48c6.9,1.5,18.2,6,24.8,9.7,8.3,4.7,20.1,13.2,23.2,16.6,1.9,2,1.8,2.1-.7,4.7l-2.6,2.6-8.5-6.7c-19.8-15.5-42.4-23.1-54-18.2-3.8,1.5-8.4,6.6-9.3,10.2-.7,2.7-.9,2.8-5.3,1.3-2.6-.9-3-1.5-2.5-3.3,2-6.7,9.7-14.5,16.3-16.4C1461.32,1706.78,1472.12,1706.58,1476.22,1707.48Z"/><path class="cls-1" d="M1485.92,2650.48a2,2,0,0,1-1.9-.1c-.4-.3.2-.6,1.3-.5S1486.72,2650.18,1485.92,2650.48Z"/><path class="cls-1" d="M1491.42,2651.48a7.56,7.56,0,0,1-3,0c-.6-.3.1-.5,1.8-.5S1492.42,2651.18,1491.42,2651.48Z"/><path class="cls-1" d="M1493.92,2659.48a2,2,0,0,1-1.9-.1c-.4-.3.2-.6,1.3-.5S1494.72,2659.18,1493.92,2659.48Z"/><path class="cls-1" d="M1499.92,2660.48a5.28,5.28,0,0,1-2.5,0c-.6-.3-.1-.5,1.3-.5S1500.62,2660.18,1499.92,2660.48Z"/><path class="cls-1" d="M1508.22,2661.78c2.7.7,2.7.8.5.8a21.71,21.71,0,0,1-5-.8c-2-.6-2.1-.8-.5-.8A28.26,28.26,0,0,1,1508.22,2661.78Z"/><path class="cls-1" d="M1506.42,2666.48a10.28,10.28,0,0,1-3.5,0c-.9-.3-.1-.5,1.8-.5S1507.42,2666.18,1506.42,2666.48Z"/><path class="cls-1" d="M1504.92,2677.48a2,2,0,0,1-1.9-.1c-.4-.3.2-.6,1.3-.5S1505.72,2677.18,1504.92,2677.48Z"/><path class="cls-1" d="M1511.92,2678.48a5.28,5.28,0,0,1-2.5,0c-.6-.3-.1-.5,1.3-.5S1512.62,2678.18,1511.92,2678.48Z"/><path class="cls-1" d="M1517.92,2679.48a5.28,5.28,0,0,1-2.5,0c-.6-.3-.1-.5,1.3-.5S1518.62,2679.18,1517.92,2679.48Z"/><path class="cls-1" d="M381.93,1678c-11.5-39.6-54.7-70.1-130.3-92-4-1.1-7.5-2.5-7.8-2.9s-4.7-2.9-9.7-5.4c-12.2-5.9-20.5-13.6-32.9-30.3-5.4-7.2-11-14.1-12.5-15.3-3.4-2.7-6.8-2.7-9.5,0l-2.1,2.1-6.2-6c-15.9-15.5-34-21.8-52.1-18.2-25,5-47.9,29.1-62.3,65.5-18,45.4-22.1,105.8-10.6,157.5,3,13.6,8.5,30.9,12.5,39.9,1.6,3.5,2.9,6.5,2.9,6.6s-2.1,1.5-4.6,3.1c-8.6,5.5-10.7,12.9-5.6,20,3.4,4.6,11.7,10.4,34.7,24.3,9.4,5.6,18.1,11,19.5,12.1l2.5,1.9-5.2,15.3c-10.4,30.3-16.4,58.2-22.6,104.3l-1.4,10-1.6-3.8c-5.6-13-12.4-34.9-15.9-51.1-3.2-14.8-3.1-36.8,0-44.8,5.1-12.8,15.2-17,32.2-13.3,3.6.7,6.5,1.3,6.6,1.2a84.22,84.22,0,0,0,3-11.4c-1.4-1.4-16.4-3.4-22.8-3.1-31.7,1.8-41.7,33.8-27.3,88.3,4.7,18,13.3,41.2,20.7,55.9l3,5.9-1.1,13.1c-3.1,38-3.5,50-3.6,107.1q0,60,1.3,77.5c1.2,16.4,4.4,45.8,5.8,54.2.6,3.6.5,3.8-2,3.8-3.2,0-3.1-3.5-1.1,40.2,7.7,172.5,2.1,286.3-16.4,335.9-2.9,7.6-7.2,14.1-11.6,17.5-6.2,4.7-7.5,6.3-7.5,8.7,0,4.4-6.2,8.2-24.5,15.2-11.5,4.4-14.2,5.9-15,8.6-1.2,3.6.6,5.9,9.3,11.8a181.74,181.74,0,0,1,17.5,14.2l5.93,5.47.18.16,35.93-6.5v-.52h0c-1.4-1.5,10.9-6.7,22.9-9.7,9.5-2.4,12.8-4.2,12.8-7,0-4.2-6.3-7.7-34.8-19.6-8.6-3.6-16.1-6.9-16.6-7.4s1.3-3.1,4.2-5.9c16.9-17.3,26.5-60.4,31.4-142.6,2.4-39.7,1.2-185-1.8-223.5l-.6-7.5,3.2,3.8a26.18,26.18,0,0,0,6.2,5.3,11,11,0,0,0,7,1c4.7-.8,4.3-1.6,10.3,21.9,15.5,61.3,18.1,131.5,7.4,202.5-4.6,30.6-13.5,70-24.3,107-5.8,20.2-8.6,31.2-8.6,34.3,0,6.4,7.4,10.6,22,12.7a64.06,64.06,0,0,1,17.5,5.7c5.5,2.6,14.8,6.3,20.7,8.3l10.7,3.7-.81.11.22,1.23h0v.09l53.49-9.68s0,0,0,0l0,0h0c.62-.53,1.26-1.09,1.91-1.69,3.1-2.9,7.4-6.5,9.4-8a31.65,31.65,0,0,0,5.2-5.2l1.5-2.3-14.7.1c-23.7.3-44.6-4.6-83.9-19.3l-6.3-2.4-2.7,2.6c-3.3,3.2-12.2,7.4-17.7,8.4-3.6.6-3.8.6-3.1-1.6,2.9-9,11.5-40.1,16-57.5,28.4-110.3,29.4-209.3,3.2-298.9l-3.5-11.8,2.8-6.2c6.3-13.6,8.5-35.3,7.6-75.1-.6-26.9-1.8-47.4-6.7-111.8-1.2-16.3-2-29.9-1.8-30.2s2.7.7,5.4,2c11.6,5.9,22.5,1.4,27.9-11.7,10.4-24.8,4.1-97.9-16.7-194.9l-2.3-10.7,8.1-.6c45.5-3.8,124.8-36.1,184.9-75.3,26.5-17.3,47.7-36.5,53.7-48.8,3.3-6.7,3.4-7.4,3.4-18.5C383.83,1687.75,383.23,1682.65,381.93,1678Zm-280.1,71.5c-2.8-4.8-4.8-6.5-7.5-6.5-3.4,0-3.5.1-10.6,13.2-3.1,6-6.1,10.8-6.4,10.8-2.2,0-11.3-29.6-14.4-46.5-4.4-23.9-5.4-60.1-2.2-83.5,5.7-42.1,19.7-76.3,38.8-94.6,15.1-14.4,29.5-17.8,44.6-10.3,7.4,3.6,17.6,12.8,23.7,21.4s14.9,26.4,18.9,38.5c3.5,10.8,8.7,32,7.9,32a23.49,23.49,0,0,1-4.1-3.1c-5-4.4-9.7-6.1-16.8-6.2-14-.2-25.9,10.6-28.2,25.6-3.2,20.4,11.3,38.9,29.5,37.5,9.3-.7,16-4.8,22.6-13.8,1.7-2.4,1.8-2.1,1.2,13.5-1,28.4-4.4,49.8-11.1,70.7-2.5,7.7-4.1,11.1-5.6,11.9-4.2,2.2-15.4.4-33.3-5.5-9.3-3.1-19.9-6.1-23.3-6.7-7.2-1.3-15-.5-19.6,1.8C103.13,1751.15,102.83,1751.05,101.83,1749.45Zm85-93.2c-2.7,5.7-6.9,8.2-13.8,8.2-5.6,0-6-.2-9.7-4.1-6.4-6.9-7.5-15.6-3-24.4,3.9-7.6,11.2-10.6,18.3-7.6C188.13,1632.25,192,1645.45,186.83,1656.25ZM96,1998.65a17,17,0,0,1,0,4.5c-.2,1.3-.4.3-.4-2.2S95.83,1997.45,96,1998.65ZM109,2221c-.9,27.8-2.6,36-7.3,36-1.5,0-4.3-14.4-6.4-32.5-2.8-24.2-4.1-49.7-4.7-89.5s.5-86.6,2.4-104l.6-6.3,1.9,2.3a13.33,13.33,0,0,1,2.3,4.4c.4,2,1.4,14.5,7,91.6C108.43,2172.65,109.63,2201.35,109,2221Zm33.5-262.5c3.1,23.6,3.3,67.6.4,77.3-2.4,7.9-4.9,11.2-8.5,11.2-3,0-10.1-4.3-14.3-8.7-2.6-2.8-2.7-2.9-4.4-29.8-2.1-32.9-2.4-93.7-.6-110.3,2.3-20.6,7.5-45.3,9.2-43.5.4.4,3,12.9,5.8,27.8C135.93,1913.35,139.33,1934.15,142.53,1958.45Zm-3.1-145a21.18,21.18,0,0,1-10.7.8c-5.6-.8-5.9-1-6.8-4.3-.5-1.9-4.4-14.2-8.7-27.3-7.5-23.3-7.6-23.8-5.6-24.9,7.7-4.1,15.2-3.2,38.6,4.3,12.6,4.1,20.9,6.2,25.9,6.6,3.9.3,7.2.8,7.2,1s-1.2,2.7-2.6,5.6C166.83,1794.65,152.93,1809,139.43,1813.45Zm229.5-103c-1.6,2.7-6.5,8.6-11,13-35.4,35.1-120.4,79.8-184.8,97-11.7,3.1-12,3.1-7.2-.4,8.9-6.3,21.4-23,29.2-38.6,19.3-38.9,27.1-94.2,20.6-146.7a260.86,260.86,0,0,0-5-28.3c-.4-1.5-.3-1.6.4-.6s1.7-.2,3.7-4.8c2.9-6.5,5.5-9.1,9-9.1,1.1,0,8.1,1.5,15.5,3.4,54.4,13.8,97.9,36.3,117.5,60.9,10.6,13.2,14.8,24.6,14.9,39.7C371.83,1704.65,371.63,1705.85,368.93,1710.45Z"/><path class="cls-1" d="M131.23,1640.55c-2.9-17.9-18.3-29.2-34.5-25.2-22.1,5.5-29.6,37.4-12.7,54.3a25.81,25.81,0,0,0,18,8.1C120,1679,134.43,1660.75,131.23,1640.55Zm-17.8,19.6c-3.2,3.5-4.5,4.1-8.7,4.5-6.8.6-11.1-1.9-14.6-8.7-9-17.1,7.3-36.5,21.6-25.6C120.73,1637.25,121.63,1651.45,113.43,1660.15Z"/><path class="cls-1" d="M1840,1678.76c0,11.1.1,11.8,3.4,18.5,6,12.3,27.2,31.5,53.7,48.8,60.1,39.2,139.4,71.5,184.9,75.3l8.1.6-2.3,10.7c-20.8,97-27.1,170.1-16.7,194.9,5.4,13.1,16.3,17.6,27.9,11.7,2.7-1.3,5.1-2.2,5.4-2s-.6,13.9-1.8,30.2c-4.9,64.4-6.1,84.9-6.7,111.8-.9,39.8,1.3,61.5,7.6,75.1l2.8,6.2-3.5,11.8c-26.2,89.6-25.2,188.6,3.2,298.9,4.5,17.4,13.1,48.5,16,57.5.7,2.2.5,2.2-3.1,1.6-5.5-1-14.4-5.2-17.7-8.4l-2.7-2.6-6.3,2.4c-39.3,14.7-60.2,19.6-83.9,19.3l-14.7-.1,1.5,2.3a31.65,31.65,0,0,0,5.2,5.2c2,1.5,6.3,5.1,9.4,8,.65.6,1.29,1.16,1.91,1.69h0l0,0s0,0,0,0l53.49,9.68v-.09h0l.22-1.23-.81-.11,10.7-3.7c5.9-2,15.2-5.7,20.7-8.3a64.06,64.06,0,0,1,17.5-5.7c14.6-2.1,22-6.3,22-12.7,0-3.1-2.8-14.1-8.6-34.3-10.8-37-19.7-76.4-24.3-107-10.7-71-8.1-141.2,7.4-202.5,6-23.5,5.6-22.7,10.3-21.9a11,11,0,0,0,7-1,26.18,26.18,0,0,0,6.2-5.3l3.2-3.8-.6,7.5c-3,38.5-4.2,183.8-1.8,223.5,4.9,82.2,14.5,125.3,31.4,142.6,2.9,2.8,4.7,5.4,4.2,5.9s-8,3.8-16.6,7.4c-28.5,11.9-34.8,15.4-34.8,19.6,0,2.8,3.3,4.6,12.8,7,12,3,24.3,8.2,22.9,9.7h0v.52l35.93,6.5.18-.16,5.93-5.47a181.74,181.74,0,0,1,17.5-14.2c8.7-5.9,10.5-8.2,9.3-11.8-.8-2.7-3.5-4.2-15-8.6-18.3-7-24.5-10.8-24.5-15.2,0-2.4-1.3-4-7.5-8.7-4.4-3.4-8.7-9.9-11.6-17.5-18.5-49.6-24.1-163.4-16.4-335.9,2-43.7,2.1-40.2-1.1-40.2-2.5,0-2.6-.2-2-3.8,1.4-8.4,4.6-37.8,5.8-54.2q1.35-17.55,1.3-77.5c-.1-57.1-.5-69.1-3.6-107.1l-1.1-13.1,3-5.9c7.4-14.7,16-37.9,20.7-55.9,14.4-54.5,4.4-86.5-27.3-88.3-6.4-.3-21.4,1.7-22.8,3.1a84.22,84.22,0,0,0,3,11.4c.1.1,3-.5,6.6-1.2,17-3.7,27.1.5,32.2,13.3,3.1,8,3.2,30,0,44.8-3.5,16.2-10.3,38.1-15.9,51.1l-1.6,3.8-1.4-10c-6.2-46.1-12.2-74-22.6-104.3l-5.2-15.3,2.5-1.9c1.4-1.1,10.1-6.5,19.5-12.1,23-13.9,31.3-19.7,34.7-24.3,5.1-7.1,3-14.5-5.6-20-2.5-1.6-4.6-3-4.6-3.1s1.3-3.1,2.9-6.6c4-9,9.5-26.3,12.5-39.9,11.5-51.7,7.4-112.1-10.6-157.5-14.4-36.4-37.3-60.5-62.3-65.5-18.1-3.6-36.2,2.7-52.1,18.2l-6.2,6-2.1-2.1c-2.7-2.7-6.1-2.7-9.5,0-1.5,1.2-7.1,8.1-12.5,15.3-12.4,16.7-20.7,24.4-32.9,30.3-5,2.5-9.4,4.9-9.7,5.4s-3.8,1.8-7.8,2.9c-75.6,21.9-118.8,52.4-130.3,92C1840.55,1665.46,1840,1670.56,1840,1678.76Zm277.9,53.7c-4.6-2.3-12.4-3.1-19.6-1.8-3.4.6-14,3.6-23.3,6.7-17.9,5.9-29.1,7.7-33.3,5.5-1.5-.8-3.1-4.2-5.6-11.9-6.7-20.9-10.1-42.3-11.1-70.7-.6-15.6-.5-15.9,1.2-13.5,6.6,9,13.3,13.1,22.6,13.8,18.2,1.4,32.7-17.1,29.5-37.5-2.3-15-14.2-25.8-28.2-25.6-7.1.1-11.8,1.8-16.8,6.2a23.49,23.49,0,0,1-4.1,3.1c-.8,0,4.4-21.2,7.9-32,4-12.1,12.7-29.8,18.9-38.5s16.3-17.8,23.7-21.4c15.1-7.5,29.5-4.1,44.6,10.3,19.1,18.3,33.1,52.5,38.8,94.6,3.2,23.4,2.2,59.6-2.2,83.5-3.1,16.9-12.2,46.5-14.4,46.5-.3,0-3.3-4.8-6.4-10.8-7.1-13.1-7.2-13.2-10.6-13.2-2.7,0-4.7,1.7-7.5,6.5C2121,1733.86,2120.65,1734,2117.85,1732.46Zm-72.7-121.3c7.1-3,14.4,0,18.3,7.6,4.5,8.8,3.4,17.5-3,24.4-3.7,3.9-4.1,4.1-9.7,4.1-6.9,0-11.1-2.5-13.8-8.2C2031.75,1628.26,2035.65,1615.06,2045.15,1611.16Zm83,372.6c0,2.5-.2,3.5-.4,2.2a17,17,0,0,1,0-4.5C2128,1980.26,2128.15,1981.26,2128.15,1983.76Zm-9.2,122c5.6-77.1,6.6-89.6,7-91.6a13.33,13.33,0,0,1,2.3-4.4l1.9-2.3.6,6.3c1.9,17.4,2.9,64.1,2.4,104s-1.9,65.3-4.7,89.5c-2.1,18.1-4.9,32.5-6.4,32.5-4.7,0-6.4-8.2-7.3-36C2114.15,2184.16,2115.35,2155.46,2119,2105.76Zm-25.3-240.5c2.8-14.9,5.4-27.4,5.8-27.8,1.7-1.8,6.9,22.9,9.2,43.5,1.8,16.6,1.5,77.4-.6,110.3-1.7,26.9-1.8,27-4.4,29.8-4.2,4.4-11.3,8.7-14.3,8.7-3.6,0-6.1-3.3-8.5-11.2-2.9-9.7-2.7-53.7.4-77.3C2084.45,1917,2087.85,1896.16,2093.65,1865.26Zm-46.6-107.2c-1.4-2.9-2.6-5.4-2.6-5.6s3.3-.7,7.2-1c5-.4,13.3-2.5,25.9-6.6,23.4-7.5,30.9-8.4,38.6-4.3,2,1.1,1.9,1.6-5.6,24.9-4.3,13.1-8.2,25.4-8.7,27.3-.9,3.3-1.2,3.5-6.8,4.3a21.18,21.18,0,0,1-10.7-.8C2070.85,1791.76,2057,1777.46,2047.05,1758.06Zm-195-79.3c.1-15.1,4.3-26.5,14.9-39.7,19.6-24.6,63.1-47.1,117.5-60.9,7.4-1.9,14.4-3.4,15.5-3.4,3.5,0,6.1,2.6,9,9.1,2,4.6,3,5.8,3.7,4.8s.8-.9.4.6a260.86,260.86,0,0,0-5,28.3c-6.5,52.5,1.3,107.8,20.6,146.7,7.8,15.6,20.3,32.3,29.2,38.6,4.8,3.5,4.5,3.5-7.2.4-64.4-17.2-149.4-61.9-184.8-97-4.5-4.4-9.4-10.3-11-13C1852.15,1688.66,1852,1687.46,1852.05,1678.76Z"/><path class="cls-1" d="M2121.75,1660.56a25.81,25.81,0,0,0,18-8.1c16.9-16.9,9.4-48.8-12.7-54.3-16.2-4-31.6,7.3-34.5,25.2C2089.35,1643.56,2103.75,1661.76,2121.75,1660.56Zm-9.7-47.4c14.3-10.9,30.6,8.5,21.6,25.6-3.5,6.8-7.8,9.3-14.6,8.7-4.2-.4-5.5-1-8.7-4.5C2102.15,1634.26,2103.05,1620.06,2112.05,1613.16Z"/><path class="cls-2" d="M1765.79,2793.79v-.93"/><polyline class="cls-2" points="1676.72 2778.19 1676.81 2777.7 1676.81 2777.68 1676.82 2777.61 1676.82 2777.6 1677.04 2776.37"/><path class="cls-3" d="M258.13,1732.13c-3.94.83-7.79,2-11.91,2.3-2.4.08-3.42-2.17-2.14-3.43,2.51-3.86,5.26-7.8,9.67-10.77,4-2.74,7.21-6.09,11.82-8.37,5.29-2.68,10.8-5.15,16.29-7.61,7.1-3.39,13.51-7.44,20.56-10.88a86.41,86.41,0,0,0,9.27-5.39c4.46-3,9.75-5.25,14.43-8,4.58-2.35,8.56-5.27,13.47-7.28,4.18-1.7,7-4.63,11.13-6.33a92.43,92.43,0,0,0,13.38-7.27c5.47-3,9.35-7.21,14.8-10.26,5.44-4.23,12.43-7.13,18.75-10.63a372.84,372.84,0,0,0,32.76-19.77c2.15-1.52,4.4-3.24,4.66-5.5,1-6.29,1.06-12.62,1.56-18.93A76.88,76.88,0,0,0,435,1564.7c-7.15-36.87-24.51-72.53-27.53-109.83-1.41-7.42.61-14.8,1.87-22.15,1.81-8.8,7-17,11.17-25.31A42.49,42.49,0,0,1,433,1390.64c13.3-10.82,32.07-18.51,52.32-20.17,8.93-.83,17.95-1.52,27-1.5,34.3.2,68,5.43,102.2,6.65,4.08,0,8.13-1.25,12.18-.44,29.47,5,59.91,5.26,90,6.84,11.29.29,22.46,1.67,33.74,1.69,22.09,1.13,44.24.36,66.3-.61,4.71-.1,9.64-1.15,14.13.33,9.65,3,20.07.31,30-.06,20.49-.67,40.93-1.82,61.34-3.22,29.3-1.57,58.45-4.34,87.64-6.65,22.34.08,44.2-3.63,66.34-5.15,5.59-.22,11.21.19,16.8-.21,34.31-3.08,68.59-7.81,103.33-7.12a265.76,265.76,0,0,1,60.25,5.61,142.39,142.39,0,0,1,21.73,6.15c8.57,3.33,17.29,6.62,24.69,11.22,7.3,4,11.4,10,16.68,15.23,3.63,3.41,5.07,7.6,7.38,11.47a46.94,46.94,0,0,1,5.17,12.23c4.07,21.31-4.73,42.34-5.16,63.59-3.07,17.86-.93,35.94,2.64,53.69,4.23,20.32,10.69,40.35,15.92,60.54,1.76,7.4,4.26,14.78,4,22.31,0,10.73-4,21.17-7.84,31.46-2.38,4.33-7.08,7.74-10.69,11.56-5.21,4.63-8.69,10.14-14.51,14.43-8.3,6.08-16.36,12.49-26.77,16.82-24.52,12.78-55.06,17.24-84.58,20.23-23.46,1.7-47.07,1.37-70.61,1.2-54.33-1.15-108.54-4.33-162.83-6.14-10.89-.2-21.72-1-32.61-.78-13.48-.78-27-.49-40.51-.55-25.79-1-51.62.23-77.44,0-9.71.69-19.51.25-29.24.88-49.42,1.79-98.7,5.24-148.06,7.72-33,2.42-66.51,4.38-99.63,1.42-12.33-1.57-24.89-3-36.45-6.58-16.22-5.52-27.21-16.07-37.49-26.14-6.75.25-13.1,2.24-19.69,3.21-39.51,8.36-79,16.81-118.61,24.92-24.61,5-49.28,9.9-73.74,15.35m58.8-19.63c31.67-5.68,62.61-13.32,94.55-18.23,3.75-.63,7.3-1.68,10.88-2.64,11.48-2.87,23.34-4.83,35.12-6.95,12.58-3.12,25.46-5.57,38.36-7.92,4.51-.78,8.78-3.16,13.62-2.27a4.23,4.23,0,0,1,3.07,4.27c-10.3,2.56-21.61,3-31.46,6.6,6.15,7.5,15.85,13.35,26.34,17.68,15.13,6,32.46,8.89,49.71,9.22,15.39.77,30.89.94,46.29.31,57.55-1.45,114.4-8.6,171.7-12.29,10.11-.3,20.16-1.37,30.24-2,16.17,0,32.34-.15,48.51.12,22.06-.35,44.11-.28,66.16-.11,25.74.78,51.42,2.11,77.12,3.4,12.88,1.06,25.87,1.28,38.73,2.51,38.84,2.31,77.64,5,116.54,6.66,9,.79,18,.11,27,.62,8.23.61,16.45-.39,24.7-.26,11.94-1.09,23.8-2.59,35.68-3.93,16.51-2.08,33.15-5.69,46.59-13.07,19.74-11,33.93-26.92,39.71-44.27,3-9.36,2.5-19,2.31-28.52-1.46-22-9.21-43.46-13.51-65.22-5-22.52-4.33-45.44-2.12-68.12,1.54-12.41,3.82-24.77,4.72-37.21.73-12.1-.79-24.88-9.45-35.59-8.32-11.07-21.25-20.19-35.95-27a170.11,170.11,0,0,0-57.77-14.21c-9.06-.5-18-2-27.13-1.78-10.12.2-20.32-.45-30.39.6-11.89,1-23.86,1.59-35.65,3.16-81.53,8.62-162.66,20-245.09,23.51-6.8,0-13.57.42-20.31,1-11.13,1.08-22.38.56-33.59.66-15.39.23-30.68-1.4-46-1.62-15.8.09-31.46-1.49-47.17-2.3-34.92-2.4-69.54-6.52-104.32-9.65-13.18-1.14-26.3-2.64-39.56-3.1-31.42-2-62.93-7.84-94.56-4.33-9.5,1-19.25,2.49-27.29,6.43-20.23,9-31.79,25.42-35.62,41.76-1.66,9.58-.45,19.24.15,28.83,2,21.1,7.53,41.89,12,62.77a354.86,354.86,0,0,1,8.78,52.83c0,12.73-.16,25.46,0,38.19,6.46-.57,7.63-6.09,13-8,2.07,3.25,2.54,6.91,2.69,10.43-.34,4.26-6.27,6.38-10.17,9-47.84,28.71-97.67,55.64-147,83-6.18,3.72-13.23,6.76-18.75,11,9.67-.55,19.07-2.41,28.54-4Z"/><text class="cls-4" transform="translate(453.29 1502.17) scale(0.47 1)">Guys, can we grab a snack bar <tspan x="118.52" y="142.08">before we go for this run?</tspan></text><path class="cls-2" d="M1814.68,2833.71v-.93"/><polyline class="cls-2" points="1725.61 2818.11 1725.7 2817.62 1725.7 2817.6 1725.71 2817.53 1725.71 2817.52 1725.93 2816.29"/><path class="cls-1" d="M1503.25,2875.15c-40.6,20.4-72.3,78-81.9,149-2.1,15.2-2.4,51.1-.6,65,7.1,53.9,28.4,91.1,59.7,104.1,4.5,1.9,5.5,2.7,6,5.3.4,1.7,2.4,8.5,4.5,15.1s4,13.4,4.4,15l.7,3-16.3,2.4c-28.3,4-67.7,10.8-84.4,14.5-38.1,8.5-63.9,20.2-79.1,35.8l-4.2,4.3,4.9,11c6.7,15.1,12.6,25.6,23.5,42,19.4,29.1,49.4,62.4,80.9,89.8,4.9,4.3,9.4,8.8,10.1,10a75.93,75.93,0,0,0,4.8,7c5.4,7.1,6.8,13.1,4.3,19.1-1.4,3.3-1.2,3.8,7.9,24.3,18.3,41.5,22.3,48.5,26.8,46.7,2.3-.8,3.4-5.9,4.1-18.4.8-13.6,2.6-21.1,7.7-31.2,3.3-6.5,4.3-9.7,4.7-14.9.4-6.5.4-6.7-3.4-10.9-2.9-3.2-6.6-5.6-14.4-9.2-5.8-2.6-11.9-5.6-13.7-6.6-7.2-3.9-37.2-30.1-56.4-49.2-28.3-28.2-45.8-49.7-61.4-75.5-7-11.6-15.5-28.5-15.5-30.9,0-3.8,21.1-16.4,36.8-22,21.1-7.5,51.8-13.9,106.2-22,12.9-2,24.7-3.8,26.1-4,2.6-.5,2.7-.4,3.8,7.2,5.2,36.6,4.1,82.4-4.9,201.7-2.1,29.1-4.5,61.3-5.1,71.5-1.6,24.8-1.6,74.1,0,85,1.5,10.6,4.5,21.9,7.1,27.1l2.1,3.9-3.1,9.8c-6.5,21.2-12.2,48.6-15.5,74.7-7.5,59.9-3.5,127.4,11.6,196,4.7,21.1,16.1,64,22.5,84.9.6,1.7.2,1.8-3.2,1.2a42.42,42.42,0,0,1-16.7-7.7l-3.7-3-15,5.6c-30.7,11.4-52.1,16-73.7,15.8l-15.2-.1,2.6,3.4c1.4,1.9,2.9,3.4,3.3,3.4s4.2,3.2,8.5,7.1c12.3,11.2,21.9,14.5,39.5,13.6,13.6-.6,32.4-6.4,49.8-15.1a49.83,49.83,0,0,1,14.9-4.5c11.2-1.6,16.8-3.7,19.9-7.4,3.5-4.1,3.1-6.2-5.7-37.4-23.7-84-31.7-136.7-30.6-202.3.8-45.1,6-82.9,16.5-119,2.6-8.8,2.9-9.5,5.2-9.3a17.83,17.83,0,0,0,14.6-6.1l3.5-4.1-.6,8.5c-1.3,19.4-2.6,63.7-3.2,113.5-1.6,145,9.7,229.2,33.8,249.8,2.1,1.9,3.5,3.8,3.1,4.4s-4.8,2.8-9.7,4.8c-21.3,8.7-36.2,15.7-38.8,18.1-5.5,5.1-3.1,7.5,11.1,11.4s19.4,6.5,25.7,13.2c4.9,5.2,4.9,5.2.5,1.1-4.1-3.8-5.6-4.4-18.5-7.7-7.7-1.9-15.8-3.8-18-4.1s1.2.8,7.5,2.5,11.6,3.4,11.8,3.8c.8,2.2,2.3,3.5,5.8,4.8l3.9,1.5-3.5-.6c-9.1-1.5-11.5-1.7-11-1.2s21.6,4.7,25.2,5c2.1.1,11.2,5.7,9.4,5.7a10.11,10.11,0,0,1-3.4-1.8c-1.9-1.3-7.1-2.4-17.3-3.7-8-1-15.2-1.6-15.9-1.3s3.6,1,9.6,1.7,10.1,1.6,9.2,2c-1.4.5-1.1,1.2,2,4.7a40.59,40.59,0,0,0,5.7,5.3c1.7,1.1,1.5,1.2-2,.7-2.2-.3-6.5-.8-9.5-1.1-4.9-.4,5.7,1.8,18.5,4l4,.6-2.3-1.9a9,9,0,0,1-2.2-2.5c0-.2,8.7-.2,19.3.1,21.3.5,25.2-.1,20.2-3.4-1.5-1-6.8-3.2-11.8-4.9l-8.9-3.2,8.9-8.2a227.69,227.69,0,0,1,17.9-14.5c7.6-5.3,8.9-6.6,9.2-9.3.4-4.2-2.3-6.2-15-10.8-17.5-6.4-25-10.9-24.1-14.5.5-2-1.4-4.2-9-10.2-11.1-8.9-20.5-44.9-25.1-96.8-5.9-65.7-5.9-165.8,0-280.3l.7-12.7h-2.8c-2.7,0-2.8-.1-2.1-4.8,4.3-29.6,6.4-58.6,7.3-98.2.5-25.5.8-29.8,1.8-26.9.7,1.9,2.7,6.3,4.5,9.8,4.6,9.3,5.9,14.1,7.1,27.6,1.4,16.8,2.2,20.7,4,21.8,4.5,2.8,8.1-3.3,26.5-44.8,9.6-21.8,10.1-23.1,8.8-25.7-2.7-5.2-.6-14.8,4.2-19,1-.9,15.5-8.6,32.2-17.2,42.1-21.7,56.6-30.9,72.5-46.5,10.1-9.8,15.7-17.1,21.2-27.4,7.1-13.3,10-23.8,11.1-40.4.7-9.9.6-10.4-1.8-13.5-8.9-11.7-24.1-21.7-47.5-31.4-17.3-7.2-37.9-13.8-85.8-27.5-32-9.2-65.9-19.4-78.9-23.8-4.9-1.7-9.2-2.8-9.6-2.6-1.1.7-8-19.2-8-23.1,0-.7,3.3-1.9,7.4-2.8,21.4-4.8,43.1-21.7,59.8-46.5,20.9-31.2,34.7-71.8,39.4-115.9,1.9-17.7,1.4-49.2-1.1-65.2-8.6-55.5-34.5-93.1-69-100C1531,2865.65,1517.65,2868,1503.25,2875.15Zm28.2,8.3c8.9-.3,10.7-.1,15.9,2.1,26.2,11,44,42.6,50.2,89,2,14.6,2.2,45.9.5,59.6-4.3,33.1-14,66.1-26.2,89-14.5,27-32.7,46.1-52,54.7-6,2.6-7.1,2.8-18.5,2.6-13.9-.3-17.3-1.4-26.9-8.6-16-12.1-29-36.2-35-65.2-6.2-29.8-6-66.7.5-99.8,2.1-10.6,3.8-16.7,3.9-13.7a22.34,22.34,0,0,0,2.2,5.5c12.6,24,44.1,17.7,53-10.6,7.4-23.3-3.9-44.2-24-44.2-6,0-8,.5-15.5,4.1-.5.3,1-3.1,3.3-7.4,14.3-26.5,32.8-45.6,52.3-54.1C1520.25,2884.25,1523.35,2883.75,1531.45,2883.45Zm-43.5,90.4c0,7.4-1.2,11.7-5,17.6-3.6,5.7-8.2,8.7-13.3,8.7-11,0-16.5-12.1-12.2-26.7,1.8-6,6.5-12.7,10.2-14.6C1479.05,2953.05,1488,2959.75,1488,2973.85Zm38,263.4c7.7,2.8,49.7,15.4,79.5,23.9,74.8,21.3,102.1,32.6,117.4,48.3l4.4,4.6-.7,7.3c-2.2,22.7-9.8,39-26,55.6-15.4,15.9-29.4,25-71.1,46.5-16,8.2-32.7,17.1-37.2,19.8a165.92,165.92,0,0,1-17.9,9c-19.5,8.1-26.4,12.8-28.4,19.5-.6,2-.9-1.3-.9-10.6-.6-74.7-10.5-166.7-23.2-213.3-1.6-5.9-2.9-11.2-2.9-11.7C1519,3234.85,1519.45,3235,1526,3237.25Zm-6.2,136.4c.7-11.5.8-11.8,1.5-6,2.8,23.8,4.1,56.9,4.1,111,.1,56.8-.5,71.1-4,104-1.5,14.1-4.9,35.4-5.9,36.3-.3.3-1.6,0-2.9-.6-2.9-1.3-3.1-2.4-4.7-24.6-1.5-19.7-.4-53.1,3.6-107.1,1.4-18.2,3.6-48.3,5-67S1519.25,3380.25,1519.75,3373.65Zm17.8,685.6c1.1,0,1.4.3.6.6a2,2,0,0,1-1.9-.1C1535.85,4059.45,1536.45,4059.15,1537.55,4059.25Zm29.4,15.1c1.4,0,1.9.2,1.2.5a5.28,5.28,0,0,1-2.5,0C1565.05,4074.55,1565.55,4074.35,1567,4074.35Z"/><path class="cls-1" d="M1534,2966.45c-4.8,2.3-11.4,8.9-14.5,14.4-6.6,11.9-7.7,28.2-2.5,38.3,9.8,18.9,34.4,19.4,47.2,1,7.3-10.4,10-26.7,6.4-37.8-2.1-6.2-8.1-13.3-13.8-16.1C1551.45,2963.65,1539.45,2963.75,1534,2966.45Zm18.2,12.3c7.5,4,9.1,18.4,3.3,29.9-4,8-8.8,11.7-15,11.7-8.7,0-13.5-6-13.5-16.9,0-10.3,5.4-21.4,12-24.8C1542.65,2976.75,1548.65,2976.75,1552.15,2978.75Z"/><path class="cls-1" d="M1493.45,3107.85c6.9,1.5,18.2,6,24.8,9.7,8.3,4.7,20.1,13.2,23.2,16.6,1.9,2,1.8,2.1-.7,4.7l-2.6,2.6-8.5-6.7c-19.8-15.5-42.4-23.1-54-18.2-3.8,1.5-8.4,6.6-9.3,10.2-.7,2.7-.9,2.8-5.3,1.3-2.6-.9-3-1.5-2.5-3.3,2-6.7,9.7-14.5,16.3-16.4C1478.55,3107.15,1489.35,3107,1493.45,3107.85Z"/><path class="cls-1" d="M1503.15,4050.85a2,2,0,0,1-1.9-.1c-.4-.3.2-.6,1.3-.5S1504,4050.55,1503.15,4050.85Z"/><path class="cls-1" d="M1508.65,4051.85a7.56,7.56,0,0,1-3,0c-.6-.3.1-.5,1.8-.5S1509.65,4051.55,1508.65,4051.85Z"/><path class="cls-1" d="M1511.15,4059.85a2,2,0,0,1-1.9-.1c-.4-.3.2-.6,1.3-.5S1512,4059.55,1511.15,4059.85Z"/><path class="cls-1" d="M1517.15,4060.85a5.28,5.28,0,0,1-2.5,0c-.6-.3-.1-.5,1.3-.5S1517.85,4060.55,1517.15,4060.85Z"/><path class="cls-1" d="M1525.45,4062.15c2.7.7,2.7.8.5.8a21.71,21.71,0,0,1-5-.8c-2-.6-2.1-.8-.5-.8A28.26,28.26,0,0,1,1525.45,4062.15Z"/><path class="cls-1" d="M1523.65,4066.85a10.28,10.28,0,0,1-3.5,0c-.9-.3-.1-.5,1.8-.5S1524.65,4066.55,1523.65,4066.85Z"/><path class="cls-1" d="M1522.15,4077.85a2,2,0,0,1-1.9-.1c-.4-.3.2-.6,1.3-.5S1523,4077.55,1522.15,4077.85Z"/><path class="cls-1" d="M1529.15,4078.85a5.28,5.28,0,0,1-2.5,0c-.6-.3-.1-.5,1.3-.5S1529.85,4078.55,1529.15,4078.85Z"/><path class="cls-1" d="M1535.15,4079.85a5.28,5.28,0,0,1-2.5,0c-.6-.3-.1-.5,1.3-.5S1535.85,4079.55,1535.15,4079.85Z"/><path class="cls-1" d="M399.16,3078.32c-11.5-39.6-54.7-70.1-130.3-92-4-1.1-7.5-2.5-7.8-2.9s-4.7-2.9-9.7-5.4c-12.2-5.9-20.5-13.6-32.9-30.3-5.4-7.2-11-14.1-12.5-15.3-3.4-2.7-6.8-2.7-9.5,0l-2.1,2.1-6.2-6c-15.9-15.5-34-21.8-52.1-18.2-25,5-47.9,29.1-62.3,65.5-18,45.4-22.1,105.8-10.6,157.5,3,13.6,8.5,30.9,12.5,39.9,1.6,3.5,2.9,6.5,2.9,6.6s-2.1,1.5-4.6,3.1c-8.6,5.5-10.7,12.9-5.6,20,3.4,4.6,11.7,10.4,34.7,24.3,9.4,5.6,18.1,11,19.5,12.1l2.5,1.9-5.2,15.3c-10.4,30.3-16.4,58.2-22.6,104.3l-1.4,10-1.6-3.8c-5.6-13-12.4-34.9-15.9-51.1-3.2-14.8-3.1-36.8,0-44.8,5.1-12.8,15.2-17,32.2-13.3,3.6.7,6.5,1.3,6.6,1.2a84.22,84.22,0,0,0,3-11.4c-1.4-1.4-16.4-3.4-22.8-3.1-31.7,1.8-41.7,33.8-27.3,88.3,4.7,18,13.3,41.2,20.7,55.9l3,5.9-1.1,13.1c-3.1,38-3.5,50-3.6,107.1q0,60,1.3,77.5c1.2,16.4,4.4,45.8,5.8,54.2.6,3.6.5,3.8-2,3.8-3.2,0-3.1-3.5-1.1,40.2,7.7,172.5,2.1,286.3-16.4,335.9-2.9,7.6-7.2,14.1-11.6,17.5-6.2,4.7-7.5,6.3-7.5,8.7,0,4.4-6.2,8.2-24.5,15.2-11.5,4.4-14.2,5.9-15,8.6-1.2,3.6.6,5.9,9.3,11.8a181.74,181.74,0,0,1,17.5,14.2l5.93,5.47.18.16,35.93-6.5V4101h0c-1.4-1.5,10.9-6.7,22.9-9.7,9.5-2.4,12.8-4.2,12.8-7,0-4.2-6.3-7.7-34.8-19.6-8.6-3.6-16.1-6.9-16.6-7.4s1.3-3.1,4.2-5.9c16.9-17.3,26.5-60.4,31.4-142.6,2.4-39.7,1.2-185-1.8-223.5l-.6-7.5,3.2,3.8a26.18,26.18,0,0,0,6.2,5.3,11,11,0,0,0,7,1c4.7-.8,4.3-1.6,10.3,21.9,15.5,61.3,18.1,131.5,7.4,202.5-4.6,30.6-13.5,70-24.3,107-5.8,20.2-8.6,31.2-8.6,34.3,0,6.4,7.4,10.6,22,12.7a64.06,64.06,0,0,1,17.5,5.7c5.5,2.6,14.8,6.3,20.7,8.3l10.7,3.7-.81.11.22,1.23h0v.09l53.49-9.68s0,0,0,0l0,0h0c.62-.53,1.26-1.09,1.91-1.69,3.1-2.9,7.4-6.5,9.4-8a31.65,31.65,0,0,0,5.2-5.2l1.5-2.3-14.7.1c-23.7.3-44.6-4.6-83.9-19.3l-6.3-2.4-2.7,2.6c-3.3,3.2-12.2,7.4-17.7,8.4-3.6.6-3.8.6-3.1-1.6,2.9-9,11.5-40.1,16-57.5,28.4-110.3,29.4-209.3,3.2-298.9l-3.5-11.8,2.8-6.2c6.3-13.6,8.5-35.3,7.6-75.1-.6-26.9-1.8-47.4-6.7-111.8-1.2-16.3-2-29.9-1.8-30.2s2.7.7,5.4,2c11.6,5.9,22.5,1.4,27.9-11.7,10.4-24.8,4.1-97.9-16.7-194.9l-2.3-10.7,8.1-.6c45.5-3.8,124.8-36.1,184.9-75.3,26.5-17.3,47.7-36.5,53.7-48.8,3.3-6.7,3.4-7.4,3.4-18.5C401.06,3088.12,400.46,3083,399.16,3078.32Zm-280.1,71.5c-2.8-4.8-4.8-6.5-7.5-6.5-3.4,0-3.5.1-10.6,13.2-3.1,6-6.1,10.8-6.4,10.8-2.2,0-11.3-29.6-14.4-46.5-4.4-23.9-5.4-60.1-2.2-83.5,5.7-42.1,19.7-76.3,38.8-94.6,15.1-14.4,29.5-17.8,44.6-10.3,7.4,3.6,17.6,12.8,23.7,21.4s14.9,26.4,18.9,38.5c3.5,10.8,8.7,32,7.9,32a23.49,23.49,0,0,1-4.1-3.1c-5-4.4-9.7-6.1-16.8-6.2-14-.2-25.9,10.6-28.2,25.6-3.2,20.4,11.3,38.9,29.5,37.5,9.3-.7,16-4.8,22.6-13.8,1.7-2.4,1.8-2.1,1.2,13.5-1,28.4-4.4,49.8-11.1,70.7-2.5,7.7-4.1,11.1-5.6,11.9-4.2,2.2-15.4.4-33.3-5.5-9.3-3.1-19.9-6.1-23.3-6.7-7.2-1.3-15-.5-19.6,1.8C120.36,3151.52,120.06,3151.42,119.06,3149.82Zm85-93.2c-2.7,5.7-6.9,8.2-13.8,8.2-5.6,0-6-.2-9.7-4.1-6.4-6.9-7.5-15.6-3-24.4,3.9-7.6,11.2-10.6,18.3-7.6C205.36,3032.62,209.26,3045.82,204.06,3056.62ZM113.26,3399a17,17,0,0,1,0,4.5c-.2,1.3-.4.3-.4-2.2S113.06,3397.82,113.26,3399Zm13,222.3c-.9,27.8-2.6,36-7.3,36-1.5,0-4.3-14.4-6.4-32.5-2.8-24.2-4.1-49.7-4.7-89.5s.5-86.6,2.4-104l.6-6.3,1.9,2.3a13.33,13.33,0,0,1,2.3,4.4c.4,2,1.4,14.5,7,91.6C125.66,3573,126.86,3601.72,126.26,3621.32Zm33.5-262.5c3.1,23.6,3.3,67.6.4,77.3-2.4,7.9-4.9,11.2-8.5,11.2-3,0-10.1-4.3-14.3-8.7-2.6-2.8-2.7-2.9-4.4-29.8-2.1-32.9-2.4-93.7-.6-110.3,2.3-20.6,7.5-45.3,9.2-43.5.4.4,3,12.9,5.8,27.8C153.16,3313.72,156.56,3334.52,159.76,3358.82Zm-3.1-145a21.18,21.18,0,0,1-10.7.8c-5.6-.8-5.9-1-6.8-4.3-.5-1.9-4.4-14.2-8.7-27.3-7.5-23.3-7.6-23.8-5.6-24.9,7.7-4.1,15.2-3.2,38.6,4.3,12.6,4.1,20.9,6.2,25.9,6.6,3.9.3,7.2.8,7.2,1s-1.2,2.7-2.6,5.6C184.06,3195,170.16,3209.32,156.66,3213.82Zm229.5-103c-1.6,2.7-6.5,8.6-11,13-35.4,35.1-120.4,79.8-184.8,97-11.7,3.1-12,3.1-7.2-.4,8.9-6.3,21.4-23,29.2-38.6,19.3-38.9,27.1-94.2,20.6-146.7a260.86,260.86,0,0,0-5-28.3c-.4-1.5-.3-1.6.4-.6s1.7-.2,3.7-4.8c2.9-6.5,5.5-9.1,9-9.1,1.1,0,8.1,1.5,15.5,3.4,54.4,13.8,97.9,36.3,117.5,60.9,10.6,13.2,14.8,24.6,14.9,39.7C389.06,3105,388.86,3106.22,386.16,3110.82Z"/><path class="cls-1" d="M148.46,3040.92c-2.9-17.9-18.3-29.2-34.5-25.2-22.1,5.5-29.6,37.4-12.7,54.3a25.81,25.81,0,0,0,18,8.1C137.26,3079.32,151.66,3061.12,148.46,3040.92Zm-17.8,19.6c-3.2,3.5-4.5,4.1-8.7,4.5-6.8.6-11.1-1.9-14.6-8.7-9-17.1,7.3-36.5,21.6-25.6C138,3037.62,138.86,3051.82,130.66,3060.52Z"/><path class="cls-1" d="M1857.17,3079.14c0,11.1.1,11.8,3.4,18.5,6,12.3,27.2,31.5,53.7,48.8,60.1,39.2,139.4,71.5,184.9,75.3l8.1.6L2105,3233c-20.8,97-27.1,170.1-16.7,194.9,5.4,13.1,16.3,17.6,27.9,11.7,2.7-1.3,5.1-2.2,5.4-2s-.6,13.9-1.8,30.2c-4.9,64.4-6.1,84.9-6.7,111.8-.9,39.8,1.3,61.5,7.6,75.1l2.8,6.2-3.5,11.8c-26.2,89.6-25.2,188.6,3.2,298.9,4.5,17.4,13.1,48.5,16,57.5.7,2.2.5,2.2-3.1,1.6-5.5-1-14.4-5.2-17.7-8.4l-2.7-2.6-6.3,2.4c-39.3,14.7-60.2,19.6-83.9,19.3l-14.7-.1,1.5,2.3a31.65,31.65,0,0,0,5.2,5.2c2,1.5,6.3,5.1,9.4,8,.65.6,1.29,1.16,1.91,1.69h0l0,0s0,0,0,0l53.49,9.68v-.09h0l.22-1.23-.81-.11,10.7-3.7c5.9-2,15.2-5.7,20.7-8.3a64.06,64.06,0,0,1,17.5-5.7c14.6-2.1,22-6.3,22-12.7,0-3.1-2.8-14.1-8.6-34.3-10.8-37-19.7-76.4-24.3-107-10.7-71-8.1-141.2,7.4-202.5,6-23.5,5.6-22.7,10.3-21.9a11,11,0,0,0,7-1,26.18,26.18,0,0,0,6.2-5.3l3.2-3.8-.6,7.5c-3,38.5-4.2,183.8-1.8,223.5,4.9,82.2,14.5,125.3,31.4,142.6,2.9,2.8,4.7,5.4,4.2,5.9s-8,3.8-16.6,7.4c-28.5,11.9-34.8,15.4-34.8,19.6,0,2.8,3.3,4.6,12.8,7,12,3,24.3,8.2,22.9,9.7h0v.52l35.93,6.5.18-.16,5.93-5.47a181.74,181.74,0,0,1,17.5-14.2c8.7-5.9,10.5-8.2,9.3-11.8-.8-2.7-3.5-4.2-15-8.6-18.3-7-24.5-10.8-24.5-15.2,0-2.4-1.3-4-7.5-8.7-4.4-3.4-8.7-9.9-11.6-17.5-18.5-49.6-24.1-163.4-16.4-335.9,2-43.7,2.1-40.2-1.1-40.2-2.5,0-2.6-.2-2-3.8,1.4-8.4,4.6-37.8,5.8-54.2q1.35-17.55,1.3-77.5c-.1-57.1-.5-69.1-3.6-107.1l-1.1-13.1,3-5.9c7.4-14.7,16-37.9,20.7-55.9,14.4-54.5,4.4-86.5-27.3-88.3-6.4-.3-21.4,1.7-22.8,3.1a84.22,84.22,0,0,0,3,11.4c.1.1,3-.5,6.6-1.2,17-3.7,27.1.5,32.2,13.3,3.1,8,3.2,30,0,44.8-3.5,16.2-10.3,38.1-15.9,51.1l-1.6,3.8-1.4-10c-6.2-46.1-12.2-74-22.6-104.3l-5.2-15.3,2.5-1.9c1.4-1.1,10.1-6.5,19.5-12.1,23-13.9,31.3-19.7,34.7-24.3,5.1-7.1,3-14.5-5.6-20-2.5-1.6-4.6-3-4.6-3.1s1.3-3.1,2.9-6.6c4-9,9.5-26.3,12.5-39.9,11.5-51.7,7.4-112.1-10.6-157.5-14.4-36.4-37.3-60.5-62.3-65.5-18.1-3.6-36.2,2.7-52.1,18.2l-6.2,6-2.1-2.1c-2.7-2.7-6.1-2.7-9.5,0-1.5,1.2-7.1,8.1-12.5,15.3-12.4,16.7-20.7,24.4-32.9,30.3-5,2.5-9.4,4.9-9.7,5.4s-3.8,1.8-7.8,2.9c-75.6,21.9-118.8,52.4-130.3,92C1857.77,3065.84,1857.17,3070.94,1857.17,3079.14Zm277.9,53.7c-4.6-2.3-12.4-3.1-19.6-1.8-3.4.6-14,3.6-23.3,6.7-17.9,5.9-29.1,7.7-33.3,5.5-1.5-.8-3.1-4.2-5.6-11.9-6.7-20.9-10.1-42.3-11.1-70.7-.6-15.6-.5-15.9,1.2-13.5,6.6,9,13.3,13.1,22.6,13.8,18.2,1.4,32.7-17.1,29.5-37.5-2.3-15-14.2-25.8-28.2-25.6-7.1.1-11.8,1.8-16.8,6.2a23.49,23.49,0,0,1-4.1,3.1c-.8,0,4.4-21.2,7.9-32,4-12.1,12.7-29.8,18.9-38.5s16.3-17.8,23.7-21.4c15.1-7.5,29.5-4.1,44.6,10.3,19.1,18.3,33.1,52.5,38.8,94.6,3.2,23.4,2.2,59.6-2.2,83.5-3.1,16.9-12.2,46.5-14.4,46.5-.3,0-3.3-4.8-6.4-10.8-7.1-13.1-7.2-13.2-10.6-13.2-2.7,0-4.7,1.7-7.5,6.5C2138.17,3134.24,2137.87,3134.34,2135.07,3132.84Zm-72.7-121.3c7.1-3,14.4,0,18.3,7.6,4.5,8.8,3.4,17.5-3,24.4-3.7,3.9-4.1,4.1-9.7,4.1-6.9,0-11.1-2.5-13.8-8.2C2049,3028.64,2052.87,3015.44,2062.37,3011.54Zm83,372.6c0,2.5-.2,3.5-.4,2.2a17,17,0,0,1,0-4.5C2145.17,3380.64,2145.37,3381.64,2145.37,3384.14Zm-9.2,122c5.6-77.1,6.6-89.6,7-91.6a13.33,13.33,0,0,1,2.3-4.4l1.9-2.3.6,6.3c1.9,17.4,2.9,64.1,2.4,104s-1.9,65.3-4.7,89.5c-2.1,18.1-4.9,32.5-6.4,32.5-4.7,0-6.4-8.2-7.3-36C2131.37,3584.54,2132.57,3555.84,2136.17,3506.14Zm-25.3-240.5c2.8-14.9,5.4-27.4,5.8-27.8,1.7-1.8,6.9,22.9,9.2,43.5,1.8,16.6,1.5,77.4-.6,110.3-1.7,26.9-1.8,27-4.4,29.8-4.2,4.4-11.3,8.7-14.3,8.7-3.6,0-6.1-3.3-8.5-11.2-2.9-9.7-2.7-53.7.4-77.3C2101.67,3317.34,2105.07,3296.54,2110.87,3265.64Zm-46.6-107.2c-1.4-2.9-2.6-5.4-2.6-5.6s3.3-.7,7.2-1c5-.4,13.3-2.5,25.9-6.6,23.4-7.5,30.9-8.4,38.6-4.3,2,1.1,1.9,1.6-5.6,24.9-4.3,13.1-8.2,25.4-8.7,27.3-.9,3.3-1.2,3.5-6.8,4.3a21.18,21.18,0,0,1-10.7-.8C2088.07,3192.14,2074.17,3177.84,2064.27,3158.44Zm-195-79.3c.1-15.1,4.3-26.5,14.9-39.7,19.6-24.6,63.1-47.1,117.5-60.9,7.4-1.9,14.4-3.4,15.5-3.4,3.5,0,6.1,2.6,9,9.1,2,4.6,3,5.8,3.7,4.8s.8-.9.4.6a260.86,260.86,0,0,0-5,28.3c-6.5,52.5,1.3,107.8,20.6,146.7,7.8,15.6,20.3,32.3,29.2,38.6,4.8,3.5,4.5,3.5-7.2.4-64.4-17.2-149.4-61.9-184.8-97-4.5-4.4-9.4-10.3-11-13C1869.37,3089,1869.17,3087.84,1869.27,3079.14Z"/><path class="cls-1" d="M2139,3060.94a25.81,25.81,0,0,0,18-8.1c16.9-16.9,9.4-48.8-12.7-54.3-16.2-4-31.6,7.3-34.5,25.2C2106.57,3043.94,2121,3062.14,2139,3060.94Zm-9.7-47.4c14.3-10.9,30.6,8.5,21.6,25.6-3.5,6.8-7.8,9.3-14.6,8.7-4.2-.4-5.5-1-8.7-4.5C2119.37,3034.64,2120.27,3020.44,2129.27,3013.54Z"/><path class="cls-2" d="M1783,4194.16v-.93"/><polyline class="cls-2" points="1693.94 4178.56 1694.04 4178.07 1694.04 4178.06 1694.05 4177.98 1694.05 4177.98 1694.27 4176.74"/><path class="cls-3" d="M1453.91,3113c-24.46-5.46-49.13-10.34-73.74-15.36-39.62-8.1-79.1-16.56-118.61-24.92-6.59-1-12.94-2.95-19.69-3.21-10.28,10.08-21.27,20.62-37.49,26.14-11.56,3.6-24.12,5-36.45,6.58-33.12,3-66.59,1-99.63-1.41-49.36-2.48-98.64-5.93-148.06-7.73-9.73-.62-19.53-.19-29.24-.87-25.82.17-51.65-1.09-77.44-.06-13.52.06-27-.22-40.51.55-10.89-.26-21.72.59-32.61.78-54.29,1.82-108.5,5-162.83,6.15-23.54.16-47.15.49-70.61-1.21-29.52-3-60.06-7.44-84.58-20.23-10.41-4.33-18.47-10.74-26.77-16.82-5.82-4.29-9.3-9.8-14.51-14.42-3.61-3.83-8.31-7.23-10.69-11.57-3.88-10.28-7.82-20.73-7.84-31.45-.31-7.54,2.19-14.92,3.95-22.31,5.23-20.19,11.69-40.23,15.92-60.55,3.57-17.74,5.71-35.83,2.64-53.69-.43-21.25-9.23-42.27-5.16-63.58a47,47,0,0,1,5.17-12.24c2.3-3.87,3.75-8,7.38-11.47,5.28-5.21,9.38-11.21,16.68-15.22,7.4-4.6,16.12-7.89,24.69-11.23a143.54,143.54,0,0,1,21.73-6.15,266.91,266.91,0,0,1,60.25-5.61c34.74-.68,69,4,103.33,7.12,5.59.41,11.21,0,16.8.21,22.14,1.53,44,5.23,66.34,5.15,29.19,2.31,58.34,5.09,87.64,6.65,20.41,1.41,40.85,2.55,61.34,3.22,10,.38,20.37,3,30,.06,4.49-1.47,9.42-.42,14.13-.32,22.06,1,44.21,1.74,66.3.61,11.28,0,22.45-1.4,33.74-1.69,30.07-1.59,60.51-1.84,90-6.84,4-.81,8.1.46,12.18.43,34.19-1.21,67.9-6.45,102.2-6.64,9,0,18,.67,27,1.49,20.25,1.67,39,9.35,52.32,20.18a42.46,42.46,0,0,1,12.44,16.76c4.15,8.33,9.36,16.51,11.17,25.32,1.26,7.34,3.28,14.73,1.87,22.14-3,37.3-20.38,73-27.53,109.84a76.88,76.88,0,0,0-1.61,29.27c.5,6.3.55,12.64,1.56,18.92.26,2.27,2.51,4,4.66,5.51a377.78,377.78,0,0,0,32.76,19.77c6.32,3.49,13.31,6.39,18.75,10.62,5.45,3.05,9.33,7.23,14.8,10.26a92.43,92.43,0,0,0,13.38,7.27c4.16,1.71,6.95,4.64,11.13,6.33,4.91,2,8.89,4.94,13.47,7.28,4.68,2.8,10,5.06,14.43,8a84.77,84.77,0,0,0,9.27,5.39c7,3.44,13.46,7.5,20.56,10.88,5.49,2.47,11,4.93,16.29,7.61,4.61,2.29,7.78,5.64,11.82,8.37,4.41,3,7.16,6.91,9.67,10.78,1.28,1.26.26,3.51-2.14,3.42-4.12-.27-8-1.47-11.91-2.29m-58.74-19.68c9.47,1.58,18.87,3.45,28.54,4-5.52-4.22-12.57-7.27-18.75-11-49.37-27.33-99.2-54.26-147-83-3.9-2.59-9.83-4.71-10.17-9,.15-3.51.62-7.17,2.69-10.42,5.33,1.86,6.5,7.39,13,8,.16-12.72,0-25.45,0-38.18a355,355,0,0,1,8.78-52.84c4.5-20.87,10-41.66,12-62.76.6-9.6,1.81-19.26.15-28.83-3.83-16.35-15.39-32.72-35.62-41.77-8-3.94-17.79-5.41-27.29-6.43-31.63-3.5-63.14,2.33-94.56,4.34-13.26.45-26.38,2-39.56,3.09-34.78,3.13-69.4,7.25-104.32,9.65-15.71.82-31.37,2.39-47.17,2.31-15.36.21-30.65,1.84-46,1.61-11.21-.1-22.46.43-33.59-.65-6.74-.63-13.51-1-20.31-1.05-82.43-3.47-163.56-14.9-245.09-23.52-11.79-1.57-23.76-2.19-35.65-3.15-10.07-1-20.27-.4-30.39-.61-9.13-.21-18.07,1.29-27.13,1.78a170.58,170.58,0,0,0-57.77,14.21c-14.7,6.85-27.63,16-35.95,27-8.66,10.71-10.18,23.5-9.45,35.59.9,12.44,3.18,24.81,4.72,37.21,2.21,22.68,2.85,45.61-2.12,68.13-4.3,21.75-12.06,43.19-13.51,65.21-.19,9.53-.66,19.17,2.31,28.53,5.78,17.35,20,33.28,39.71,44.27,13.44,7.38,30.08,11,46.59,13.06,11.88,1.34,23.74,2.84,35.68,3.94,8.25-.14,16.47.86,24.7.25,9-.51,18,.18,27-.61,38.9-1.69,77.7-4.36,116.54-6.67,12.86-1.22,25.85-1.45,38.73-2.51,25.7-1.29,51.38-2.62,77.12-3.39,22.05-.18,44.1-.25,66.16.11,16.17-.27,32.34-.12,48.51-.13,10.08.63,20.13,1.69,30.24,2,57.3,3.69,114.15,10.84,171.7,12.29,15.4.63,30.9.46,46.29-.31,17.25-.32,34.58-3.24,49.71-9.22,10.49-4.32,20.19-10.17,26.34-17.67-9.85-3.58-21.16-4-31.46-6.6a4.24,4.24,0,0,1,3.07-4.28c4.84-.89,9.11,1.49,13.62,2.27,12.9,2.35,25.78,4.8,38.36,7.92,11.78,2.13,23.64,4.09,35.12,7,3.58,1,7.13,2,10.88,2.63,31.94,4.92,62.88,12.56,94.55,18.23Z"/><text class="cls-5" transform="translate(446.34 2897.17) scale(0.29 1)">Yea sure, there is a shop inside the SECC.<tspan x="172.47" y="161.38" xml:space="preserve"> Ill be back in a min with the snac</tspan><tspan class="cls-6" x="2365.25" y="161.38">k</tspan><tspan x="2445.4" y="161.38">s!</tspan></text><line class="cls-2" x1="915.58" y1="1334.77" x2="915.53" y2="1330.04"/></g></g></svg>