<svg xmlns="http://www.w3.org/2000/svg" viewBox="0 0 426.88 1218.07"><defs><style>.cls-1{fill:#010101;}</style></defs><g id="Layer_2" data-name="Layer 2"><g id="Layer_2-2" data-name="Layer 2"><path class="cls-1" d="M195.48,1c-34.5,6.9-60.4,44.5-69,100-2.5,16-3,47.5-1.1,65.2,4.7,44.1,18.5,84.7,39.4,115.9,16.7,24.8,38.4,41.7,59.8,46.5,4.1.9,7.4,2.1,7.4,2.8,0,3.9-6.9,23.8-8,23.1-.4-.2-4.7.9-9.6,2.6-13,4.4-46.9,14.6-78.9,23.8-47.9,13.7-68.5,20.3-85.8,27.5-23.4,9.7-38.6,19.7-47.5,31.4-2.4,3.1-2.5,3.6-1.8,13.5,1.1,16.6,4,27.1,11.1,40.4,5.5,10.3,11.1,17.6,21.2,27.4,15.9,15.6,30.4,24.8,72.5,46.5,16.7,8.6,31.2,16.3,32.2,17.2,4.8,4.2,6.9,13.8,4.2,19-1.3,2.6-.8,3.9,8.8,25.7,18.4,41.5,22,47.6,26.5,44.8,1.8-1.1,2.6-5,4-21.8,1.2-13.5,2.5-18.3,7.1-27.6,1.8-3.5,3.8-7.9,4.5-9.8,1-2.9,1.3,1.4,1.8,26.9.9,39.6,3,68.6,7.3,98.2.7,4.7.6,4.8-2.1,4.8h-2.8l.7,12.7c5.9,114.5,5.9,214.6,0,280.3-4.6,51.9-14,87.9-25.1,96.8-7.6,6-9.5,8.2-9,10.2.9,3.6-6.6,8.1-24.1,14.5-12.7,4.6-15.4,6.6-15,10.8.3,2.7,1.6,4,9.2,9.3a227.69,227.69,0,0,1,17.9,14.5l8.9,8.2-8.9,3.2c-5,1.7-10.3,3.9-11.8,4.9-5,3.3-1.1,3.9,20.2,3.4,10.6-.3,19.3-.3,19.3-.1a9,9,0,0,1-2.2,2.5l-2.3,1.9,4-.6c12.8-2.2,23.4-4.4,18.5-4-3,.3-7.3.8-9.5,1.1-3.5.5-3.7.4-2-.7a40.59,40.59,0,0,0,5.7-5.3c3.1-3.5,3.4-4.2,2-4.7-.9-.4,3.2-1.2,9.2-2s10.3-1.5,9.6-1.7-7.9.3-15.9,1.3c-10.2,1.3-15.4,2.4-17.3,3.7a10.11,10.11,0,0,1-3.4,1.8c-1.8,0,7.3-5.6,9.4-5.7,3.6-.3,24.6-4.5,25.2-5s-1.9-.3-11,1.2l-3.5.6,3.9-1.5c3.5-1.3,5-2.6,5.8-4.8.2-.4,5.5-2.1,11.8-3.8s9.7-2.8,7.5-2.5-10.3,2.2-18,4.1c-12.9,3.3-14.4,3.9-18.5,7.7-4.4,4.1-4.4,4.1.5-1.1,6.3-6.7,11.5-9.4,25.7-13.2s16.6-6.3,11.1-11.4c-2.6-2.4-17.5-9.4-38.8-18.1-4.9-2-9.3-4.2-9.7-4.8s1-2.5,3.1-4.4c24.1-20.6,35.4-104.8,33.8-249.8-.6-49.8-1.9-94.1-3.2-113.5l-.6-8.5,3.5,4.1a17.83,17.83,0,0,0,14.6,6.1c2.3-.2,2.6.5,5.2,9.3,10.5,36.1,15.7,73.9,16.5,119,1.1,65.6-6.9,118.3-30.6,202.3-8.8,31.2-9.2,33.3-5.7,37.4,3.1,3.7,8.7,5.8,19.9,7.4a49.83,49.83,0,0,1,14.9,4.5c17.4,8.7,36.2,14.5,49.8,15.1,17.6.9,27.2-2.4,39.5-13.6,4.3-3.9,8.1-7.1,8.5-7.1s1.9-1.5,3.3-3.4l2.6-3.4-15.2.1c-21.6.2-43-4.4-73.7-15.8l-15-5.6-3.7,3a42.42,42.42,0,0,1-16.7,7.7c-3.4.6-3.8.5-3.2-1.2,6.4-20.9,17.8-63.8,22.5-84.9,15.1-68.6,19.1-136.1,11.6-196-3.3-26.1-9-53.5-15.5-74.7l-3.1-9.8,2.1-3.9c2.6-5.2,5.6-16.5,7.1-27.1,1.6-10.9,1.6-60.2,0-85-.6-10.2-3-42.4-5.1-71.5-9-119.3-10.1-165.1-4.9-201.7,1.1-7.6,1.2-7.7,3.8-7.2,1.4.2,13.2,2,26.1,4,54.4,8.1,85.1,14.5,106.2,22,15.7,5.6,36.8,18.2,36.8,22,0,2.4-8.5,19.3-15.5,30.9-15.6,25.8-33.1,47.3-61.4,75.5-19.2,19.1-49.2,45.3-56.4,49.2-1.8,1-7.9,4-13.7,6.6-7.8,3.6-11.5,6-14.4,9.2-3.8,4.2-3.8,4.4-3.4,10.9.4,5.2,1.4,8.4,4.7,14.9,5.1,10.1,6.9,17.6,7.7,31.2.7,12.5,1.8,17.6,4.1,18.4,4.5,1.8,8.5-5.2,26.8-46.7,9.1-20.5,9.3-21,7.9-24.3-2.5-6-1.1-12,4.3-19.1a75.93,75.93,0,0,0,4.8-7c.7-1.2,5.2-5.7,10.1-10,31.5-27.4,61.5-60.7,80.9-89.8,10.9-16.4,16.8-26.9,23.5-42l4.9-11-4.2-4.3c-15.2-15.6-41-27.3-79.1-35.8-16.7-3.7-56.1-10.5-84.4-14.5l-16.3-2.4.7-3c.4-1.6,2.4-8.4,4.4-15s4.1-13.4,4.5-15.1c.5-2.6,1.5-3.4,6-5.3,31.3-13,52.6-50.2,59.7-104.1,1.8-13.9,1.5-49.8-.6-65-9.6-71-41.3-128.6-81.9-149C221.28.77,208-1.53,195.48,1Zm28.3,18.3c19.5,8.5,38,27.6,52.3,54.1,2.3,4.3,3.8,7.7,3.3,7.4-7.5-3.6-9.5-4.1-15.5-4.1-20.1,0-31.4,20.9-24,44.2,8.9,28.3,40.4,34.6,53,10.6a22.34,22.34,0,0,0,2.2-5.5c.1-3,1.8,3.1,3.9,13.7,6.5,33.1,6.7,70,.5,99.8-6,29-19,53.1-35,65.2-9.6,7.2-13,8.3-26.9,8.6-11.4.2-12.5,0-18.5-2.6-19.3-8.6-37.5-27.7-52-54.7-12.2-22.9-21.9-55.9-26.2-89-1.7-13.7-1.5-45,.5-59.6,6.2-46.4,24-78,50.2-89,5.2-2.2,7-2.4,15.9-2.1C215.58,16.57,218.68,17.07,223.78,19.27Zm47.5,72.4c3.7,1.9,8.4,8.6,10.2,14.6,4.3,14.6-1.2,26.7-12.2,26.7-5.1,0-9.7-3-13.3-8.7-3.8-5.9-5-10.2-5-17.6C251,92.57,259.88,85.87,271.28,91.67ZM220,369c0,.5-1.3,5.8-2.9,11.7-12.7,46.6-22.6,138.6-23.2,213.3,0,9.3-.3,12.6-.9,10.6-2-6.7-8.9-11.4-28.4-19.5a165.92,165.92,0,0,1-17.9-9c-4.5-2.7-21.2-11.6-37.2-19.8-41.7-21.5-55.7-30.6-71.1-46.5-16.2-16.6-23.8-32.9-26-55.6l-.7-7.3,4.4-4.6c15.3-15.7,42.6-27,117.4-48.3,29.8-8.5,71.8-21.1,79.5-23.9C219.48,367.77,220,367.67,220,369Zm2.5,183.5c1.4,18.7,3.6,48.8,5,67,4,54,5.1,87.4,3.6,107.1-1.6,22.2-1.8,23.3-4.7,24.6-1.3.6-2.6.9-2.9.6-1-.9-4.4-22.2-5.9-36.3-3.5-32.9-4.1-47.2-4-104,0-54.1,1.3-87.2,4.1-111,.7-5.8.8-5.5,1.5,6C219.68,513.07,221.18,533.77,222.48,552.47Zm-19.8,640.1a2,2,0,0,1-1.9.1c-.8-.3-.5-.6.6-.6S203.08,1192.27,202.68,1192.57Zm-29.4,15.1a5.28,5.28,0,0,1-2.5,0c-.7-.3-.2-.5,1.2-.5S173.88,1207.37,173.28,1207.67Z"/><path class="cls-1" d="M182.18,99.07c-5.7,2.8-11.7,9.9-13.8,16.1-3.6,11.1-.9,27.4,6.4,37.8,12.8,18.4,37.4,17.9,47.2-1,5.2-10.1,4.1-26.4-2.5-38.3-3.1-5.5-9.7-12.1-14.5-14.4C199.48,96.57,187.48,96.47,182.18,99.07Zm17.8,12.4c6.6,3.4,12,14.5,12,24.8,0,10.9-4.8,16.9-13.5,16.9-6.2,0-11-3.7-15-11.7-5.8-11.5-4.2-25.9,3.3-29.9C190.28,109.57,196.28,109.57,200,111.47Z"/><path class="cls-1" d="M245.48,240.67c-6.9,1.5-18.2,6-24.8,9.7-8.3,4.7-20.1,13.2-23.2,16.6-1.9,2-1.8,2.1.7,4.7l2.6,2.6,8.5-6.7c19.8-15.5,42.4-23.1,54-18.2,3.8,1.5,8.4,6.6,9.3,10.2.7,2.7.9,2.8,5.3,1.3,2.6-.9,3-1.5,2.5-3.3-2-6.7-9.7-14.5-16.3-16.4C260.38,240,249.58,239.77,245.48,240.67Z"/><path class="cls-1" d="M235.78,1183.67a2,2,0,0,0,1.9-.1c.4-.3-.2-.6-1.3-.5S235,1183.37,235.78,1183.67Z"/><path class="cls-1" d="M230.28,1184.67a7.56,7.56,0,0,0,3,0c.6-.3-.1-.5-1.8-.5S229.28,1184.37,230.28,1184.67Z"/><path class="cls-1" d="M227.78,1192.67a2,2,0,0,0,1.9-.1c.4-.3-.2-.6-1.3-.5S227,1192.37,227.78,1192.67Z"/><path class="cls-1" d="M221.78,1193.67a5.28,5.28,0,0,0,2.5,0c.6-.3.1-.5-1.3-.5S221.08,1193.37,221.78,1193.67Z"/><path class="cls-1" d="M213.48,1195c-2.7.7-2.7.8-.5.8a21.71,21.71,0,0,0,5-.8c2-.6,2.1-.8.5-.8A28.26,28.26,0,0,0,213.48,1195Z"/><path class="cls-1" d="M215.28,1199.67a10.28,10.28,0,0,0,3.5,0c.9-.3.1-.5-1.8-.5S214.28,1199.37,215.28,1199.67Z"/><path class="cls-1" d="M216.78,1210.67a2,2,0,0,0,1.9-.1c.4-.3-.2-.6-1.3-.5S216,1210.37,216.78,1210.67Z"/><path class="cls-1" d="M209.78,1211.67a5.28,5.28,0,0,0,2.5,0c.6-.3.1-.5-1.3-.5S209.08,1211.37,209.78,1211.67Z"/><path class="cls-1" d="M203.78,1212.67a5.28,5.28,0,0,0,2.5,0c.6-.3.1-.5-1.3-.5S203.08,1212.37,203.78,1212.67Z"/></g></g></svg>